<svg width="270" height="600" viewBox="0 0 270 600" fill="none" xmlns="http://www.w3.org/2000/svg">
<path opacity="0.1" d="M344.827 78.4429L338.633 79.0785V73.9865L344.827 74.6222L344.218 68.2318H349.168L348.553 74.5951L354.747 73.9594V79.0515L348.546 78.4429L349.162 84.813H344.218L344.827 78.4429ZM346.687 127.808C349.25 127.808 351.332 114.385 351.332 107.697C351.332 104.045 349.25 101.651 346.687 101.651C344.124 101.651 342.041 104.045 342.041 107.697C342.041 114.385 344.117 127.808 346.687 127.808ZM369.814 138.465C371.464 133.285 373.323 125.414 373.323 121.613C373.323 114.662 369.476 106.973 355.958 104.613C355.958 113.161 351.9 133.569 346.964 133.569H346.409C341.486 133.569 337.415 113.005 337.415 104.613C323.938 106.98 320.205 114.669 320.205 121.613C320.205 125.414 322.065 133.285 323.708 138.465H369.814ZM346.687 97.5126C347.446 97.5328 348.195 97.326 348.836 96.9186C349.478 96.5112 349.983 95.9218 350.288 95.2257C350.593 94.5295 350.683 93.7583 350.547 93.0106C350.411 92.2629 350.056 91.5727 349.526 91.0282C348.996 90.4836 348.315 90.1096 347.572 89.9537C346.828 89.7979 346.054 89.8674 345.35 90.1534C344.646 90.4393 344.043 90.9287 343.619 91.559C343.194 92.1894 342.968 92.932 342.967 93.6919C342.96 94.1871 343.051 94.6789 343.234 95.139C343.417 95.5992 343.689 96.0187 344.035 96.3736C344.38 96.7285 344.792 97.0118 345.247 97.2072C345.702 97.4026 346.191 97.5064 346.687 97.5126ZM366.04 148.514C366.04 148.514 366.994 146.167 368.211 142.786H325.318C326.528 146.167 327.482 148.514 327.482 148.514H366.04ZM430.1 173.034C430.1 173.034 430.627 161.491 436.314 155.871C436.314 155.871 438.039 161.058 444.551 162.262C435.645 152.179 446.512 137.038 450.867 130.526C454.295 125.407 453.349 121.803 452.334 120.349C449.061 115.69 441.616 117.272 434.752 117.211C445.998 124.805 434.522 134.793 428.91 147.79C423.297 160.788 430.1 173.034 430.1 173.034ZM417.522 105.803C429.288 116.535 435.591 113.553 444.95 113.857C454.309 114.161 455.377 118.199 455.377 118.199H455.682C455.181 111.504 444.003 113.397 433.123 106.216C425.413 101.117 420.822 93.9962 417.427 91.2913C414.033 88.5863 404.146 90.6759 397.059 95.2945C397.059 95.2945 403.652 93.1306 417.542 105.803H417.522ZM369.739 148.582C381.066 148.582 392.109 141.021 396.505 125.204C400.9 109.387 412.119 106.784 412.119 106.784C409.684 104.079 398.54 95.964 394.104 99.0274C394.104 99.0274 389.81 101.286 388.058 118.807C386.321 136.207 377.029 145.606 370.443 146.431L369.739 148.582ZM294.306 116.934H278.624C283.885 141.414 303.611 148.446 324.134 148.446L323.458 146.614C307.472 146.614 297.119 134.57 294.326 116.934H294.306ZM191.85 84.7859H196.8L196.191 78.4429L202.386 79.0785V73.9865L196.191 74.6222L196.807 68.2588H191.85L192.472 74.6222L186.278 73.9865V79.0785L192.472 78.4429L191.85 84.7859ZM194.332 127.808C196.895 127.808 198.977 114.385 198.977 107.697C198.977 104.045 196.895 101.651 194.332 101.651C191.769 101.651 189.686 104.045 189.686 107.697C189.686 114.385 191.769 127.808 194.332 127.808ZM217.324 138.465C218.967 133.285 220.826 125.414 220.826 121.613C220.826 114.669 217.094 106.98 203.616 104.613C203.616 113.005 199.559 133.569 194.622 133.569H194.068C189.145 133.569 185.074 113.161 185.074 104.613C171.549 106.973 167.708 114.662 167.708 121.613C167.708 125.414 169.568 133.285 171.218 138.465H217.324ZM194.332 97.5126C195.091 97.5328 195.84 97.326 196.481 96.9186C197.123 96.5112 197.628 95.9218 197.933 95.2257C198.238 94.5295 198.328 93.7583 198.192 93.0106C198.057 92.2629 197.701 91.5727 197.171 91.0282C196.641 90.4836 195.96 90.1096 195.217 89.9537C194.473 89.7979 193.699 89.8674 192.995 90.1534C192.291 90.4393 191.688 90.9287 191.264 91.559C190.839 92.1894 190.613 92.932 190.612 93.6919C190.6 94.6915 190.984 95.6553 191.682 96.3716C192.379 97.088 193.332 97.4983 194.332 97.5126ZM174.971 148.514H213.516C213.516 148.514 214.47 146.167 215.68 142.786H172.807C174.024 146.167 174.971 148.514 174.971 148.514ZM104.684 155.871C110.371 161.491 110.898 173.034 110.898 173.034C110.898 173.034 117.715 160.801 112.095 147.79C106.476 134.78 95.0067 124.799 106.252 117.211C99.382 117.272 91.9367 115.69 88.6704 120.349C87.6561 121.803 86.7094 125.407 90.1379 130.526C94.4928 137.038 105.36 152.166 96.4539 162.262C102.959 161.058 104.684 155.871 104.684 155.871ZM96.0414 113.857C105.4 113.553 111.703 116.562 123.469 105.803C137.359 93.1306 143.952 95.2945 143.952 95.2945C136.865 90.6759 126.979 88.6269 123.584 91.2913C120.19 93.9556 115.598 101.117 107.875 106.216C96.9881 113.397 85.81 111.504 85.3096 118.199H85.6139C85.6139 118.199 86.6891 114.168 96.0414 113.857ZM128.872 106.784C128.872 106.784 140.098 109.387 144.487 125.204C148.875 141.021 159.925 148.582 171.252 148.582L170.576 146.431C163.989 145.606 154.698 136.207 152.96 118.807C151.208 101.286 146.914 99.0274 146.914 99.0274C142.458 95.9573 131.314 104.065 128.879 106.784H128.872ZM217.587 146.614L216.911 148.446C237.435 148.446 257.16 141.414 262.421 116.934H246.692C243.899 134.57 233.546 146.614 217.594 146.614H217.587ZM69.6683 262.824C59.2949 255.94 52.0863 249.529 48.2656 243.822C39.5963 240.441 28.3844 235.302 22.8596 230.663C15.2723 224.292 17.6797 218.558 18.5588 217.415C25.2399 224.238 39.7113 234.071 49.99 238.446C56.4074 235.944 65.3202 234.118 74.003 233.036C48.2656 222.893 20.628 203.769 6.19048 185.768C3.2624 191.455 -8.63251 218.227 13.6696 240.143C25.4157 251.707 49.6045 259.673 69.6683 262.824ZM74.003 228.296C70.4866 221.533 67.0581 212.458 66.605 204.628C55.9408 196.242 43.7619 185.578 36.7223 173.386C32.6649 166.346 34.1527 160.165 37.0334 158.042C39.2312 165.697 53.5537 187.12 66.5374 197.879C66.6559 190.874 67.681 183.914 69.5872 177.173C54.4937 160.747 37.5744 133.535 33.49 122.871C28.8916 126.678 20.9729 136.247 19.0321 149.738C17.0913 163.229 21.4733 177.261 32.1104 191.191C40.2928 201.909 58.3009 217.889 74.003 228.296ZM53.7837 294.878C61.024 294.845 68.2537 294.321 75.4231 293.309C68.539 290.969 60.0523 287.425 54.5343 283.916C47.6367 283.781 38.3047 283.584 32.266 281.745C23.4209 279.04 23.5493 272.988 23.7049 271.602C31.3531 274.678 44.3502 277.62 53.9595 278.188C58.5072 274.029 63.4619 270.339 68.7487 267.172C45.9461 267.368 16.8344 258.341 0.449277 249.678C-3.29028 280.109 17.3551 289.278 23.8672 291.381C30.7106 293.613 41.6115 294.878 53.7837 294.878ZM89.509 319.222C80.5489 318.072 71.927 315.949 69.9321 315.117C65.2661 316.47 54.1082 318.329 50.4837 318.126C42.2607 317.68 41.3816 311.364 41.3816 311.364C41.3816 311.364 56.1843 311.993 68.0319 309.335C70.5281 305.169 73.3789 301.225 76.5524 297.549C64.4275 300.889 39.6639 303.513 15.8741 299.807C16.3542 309.606 25.8823 328.297 47.2242 328.297C58.6999 328.331 76.9514 323.685 89.509 319.229V319.222ZM92.4371 341.362C90.9696 342.349 84.4846 346.447 79.0882 347.13C69.2491 348.374 68.2077 342.288 68.2077 342.288C75.3407 341.299 82.2803 339.224 88.7854 336.134C89.4109 331.607 90.3968 327.136 91.7338 322.765C76.5456 331.225 51.7685 337.176 37.074 337.372C40.0156 344.357 51.4168 359.011 65.8679 359.011C79.2235 359.011 98.327 348.726 109.059 341.084C105.651 341.761 96.7176 341.957 92.4371 341.368V341.362ZM132.558 356.374C128.159 357.763 123.625 358.685 119.033 359.126C119.033 359.126 113.86 365.686 109.113 365.686C108.018 365.686 106.942 365.399 105.992 364.853C105.043 364.307 104.254 363.522 103.703 362.575C103.703 362.575 109.789 359.64 113.711 355.481C112.855 351.685 112.402 347.809 112.359 343.918C101.803 354.521 81.969 364.827 68.113 366.822C70.8179 372.536 80.5827 381.516 92.7616 381.516C108.552 381.483 124.944 365.963 132.558 356.374ZM180.198 371.008C176.04 372.036 169.27 377.486 169.27 377.486C168.587 379.202 168.174 381.013 168.047 382.855C165.139 383.376 163.536 381.138 164.74 376.465C163.371 374.824 162.261 372.984 161.446 371.008C157.085 380.211 158.113 394.392 171.996 394.791C170.806 384.715 175.33 375.268 180.165 370.974L180.198 371.008ZM146.86 372.36C143.202 379.427 138.069 376.681 137.9 375.68C139.162 374.227 140.293 372.666 141.281 371.014C139.617 367.784 138.125 364.468 136.811 361.081C131.591 372.083 121.988 383.261 113.955 387.623C118.688 394.196 133.342 395.535 142.478 389.57C148.625 385.56 152.513 378.27 156.943 369.358C153.664 370.636 150.279 371.623 146.826 372.306L146.86 372.36ZM241.654 255.616C245.272 261.431 248.491 268.464 249.607 274.658C253.076 270.459 256.741 263.162 259.223 254.452C262.266 258.253 267.581 266.002 270.509 272.4C273.437 266.002 278.752 258.253 281.795 254.452C284.277 263.169 287.942 270.459 291.411 274.658C292.527 268.43 295.746 261.431 299.364 255.616C302.116 266.936 312.726 277.931 323.708 278.776C316.581 269.526 316.27 253.533 316.79 248.211C312.057 240.833 308.919 234.172 307.431 229.648C304.206 232.833 299.235 239.021 294.766 246.169C294.574 239.551 293.937 232.954 292.859 226.423C288.253 230.588 279.915 233.597 275.459 234.767C273.362 239.244 271.705 243.914 270.509 248.711C269.321 243.922 267.672 239.259 265.586 234.788C261.13 233.618 252.792 230.608 248.187 226.443C247.108 232.975 246.471 239.572 246.28 246.189C241.81 239.041 236.812 232.854 233.614 229.669C232.119 234.193 228.995 240.853 224.255 248.231C224.762 253.553 224.465 269.546 217.337 278.797C228.292 277.972 238.902 266.956 241.654 255.616ZM324.114 199.056C319.806 204.797 313.01 208.063 303.428 207.13C303.428 207.13 307.898 199.651 308.696 193.145C304.226 197.548 294.279 199.056 288.098 198.433C288.098 198.433 280.815 209.875 276.561 227.829C282.884 225.915 292.23 220.512 296.733 216.212C297.565 220.174 298.519 225.679 299.06 230.101C302.516 225.67 306.211 221.43 310.13 217.402C311.854 224.969 314.532 234.429 320.564 242.842C319.394 234.307 321.24 219.038 325.013 210.815C325.636 206.068 325.284 202.396 324.114 199.076V199.056ZM216.897 199.056C215.728 202.376 215.383 206.048 216.005 210.815C219.792 219.038 221.618 234.307 220.454 242.842C226.48 234.429 229.158 224.969 230.889 217.402C234.807 221.43 238.503 225.67 241.959 230.101C242.5 225.658 243.453 220.174 244.285 216.212C248.789 220.512 258.134 225.915 264.457 227.829C260.203 209.896 252.927 198.454 252.927 198.454C246.746 199.076 236.799 197.568 232.322 193.166C233.12 199.671 237.597 207.15 237.597 207.15C228.001 208.083 221.212 204.817 216.897 199.076V199.056ZM282.877 144.605C291.668 148.94 305.592 153.248 326.156 153.248L363.701 153.349C365.878 153.349 366.69 154.701 365.979 157.143C358.46 182.549 337.956 188.574 329.855 199.576C329.855 199.576 329.916 196.148 326.156 187.965C323.607 192.171 316.689 200.05 312.178 201.057C313.254 198.792 314.532 189.845 313.531 183.834C302.907 193.145 289.802 194.978 282.776 189.602C288.761 189.832 296.551 183.157 300.48 177.234C294.995 178.505 287.462 177.2 285.907 175.617C289.362 174.772 293.562 171.695 296.084 168.774C292.203 168.503 283.77 165.312 281.356 160.815C284.737 161.586 289.755 160.199 293.014 158.468C290.566 157.143 284.365 150.475 282.877 144.626V144.605ZM333.534 161.004C333.534 162.235 335.177 162.613 340.972 164.926C346.768 167.239 349.709 170.336 349.709 170.336L353.395 164.25C354.287 162.769 354.565 160.963 351.562 160.963L333.534 161.004ZM402.624 206.264C402.956 205.825 402.577 205.771 402.313 205.94C402.05 206.109 395.659 209.875 381.783 200.854C367.907 191.833 357.188 188.006 351.65 187.14C351.65 187.14 346.443 190.846 341.696 194.998C354.646 196.1 364.803 204.026 365.966 206.765C366.074 207.015 366.345 207.022 366.426 206.765C367.245 204.214 367.088 201.45 365.986 199.008C365.986 199.008 372.018 202.727 383.71 209.571C395.402 216.414 400.738 208.793 402.624 206.284V206.264ZM398.662 169.666C406.486 180.446 395.666 192.246 394.997 193.064C394.53 193.639 394.124 193.375 394.192 192.733C394.26 192.09 388.566 175.556 355.829 184.307C355.153 184.496 354.7 184.51 355.356 183.834C361.408 179.026 368.583 168.28 370.909 159.597C370.896 159.591 390.838 158.914 398.662 169.687V169.666ZM381.08 167.415C381.08 164.405 376.705 163.574 374.196 163.574C373.598 165.144 372.858 166.656 371.984 168.091C374.568 166.968 378.111 166.853 381.114 167.435L381.08 167.415ZM138.394 206.284C140.28 208.793 145.609 216.428 157.328 209.605C169.047 202.782 175.052 199.042 175.052 199.042C173.948 201.483 173.789 204.247 174.606 206.798C174.687 207.042 174.964 207.035 175.073 206.798C176.236 204.06 186.393 196.134 199.343 195.032C194.609 190.88 189.382 187.174 189.382 187.174C183.85 188.067 173.152 191.86 159.255 200.888C145.359 209.916 138.969 206.142 138.718 205.973C138.468 205.804 138.062 205.845 138.394 206.284ZM214.808 153.268C235.406 153.268 249.296 148.96 258.087 144.626C256.599 150.475 250.391 157.143 247.903 158.488C251.169 160.22 256.187 161.606 259.568 160.835C257.154 165.332 248.748 168.524 244.833 168.794C247.362 171.715 251.554 174.792 255.017 175.638C253.461 177.22 245.921 178.525 240.444 177.254C244.366 183.178 252.163 189.852 258.148 189.622C251.115 194.998 238.016 193.166 227.393 183.854C226.392 189.866 227.677 198.812 228.745 201.077C224.241 200.07 217.317 192.192 214.761 187.986C211.007 196.168 211.062 199.597 211.062 199.597C202.947 188.594 182.464 182.569 174.944 157.163C174.227 154.756 175.046 153.369 177.223 153.369L214.808 153.268ZM207.484 161.024H189.429C186.42 161.024 186.724 162.83 187.59 164.311L191.282 170.397C191.282 170.397 194.196 167.273 200.019 164.987C205.841 162.701 207.484 162.255 207.484 161.024ZM170.116 159.591C172.435 168.253 179.583 179.019 185.669 183.827C186.345 184.503 185.899 184.503 185.202 184.3C152.453 175.577 146.759 192.199 146.82 192.726C146.88 193.253 146.488 193.632 146.022 193.057C145.345 192.239 134.526 180.439 142.356 169.66C150.187 158.881 170.116 159.591 170.116 159.591ZM169 168.084C168.123 166.651 167.383 165.138 166.789 163.567C164.28 163.567 159.905 164.399 159.905 167.408C162.907 166.853 166.451 166.968 169 168.111V168.084ZM270.509 83.7851C274.566 83.7851 279.746 66.9537 281.079 51.0284C281.079 47.8028 277.021 42.8731 270.509 42.7446C263.97 42.8731 259.933 47.8028 259.933 51.0284C261.103 65.8852 266.54 83.7851 270.509 83.7851ZM302.251 95.2404C303.604 93.5566 310.319 80.5392 310.319 67.3932C310.319 55.5659 295.482 49.0538 286.651 48.7563C285.63 65.6621 279.063 92.1771 270.502 92.1771C262.388 92.1771 255.362 65.8041 254.354 48.7563C245.529 49.0538 230.686 55.5659 230.686 67.3932C230.686 80.5392 237.401 93.5566 238.753 95.2404H302.251ZM299.114 101.631C299.095 101.119 298.926 100.623 298.628 100.207C298.33 99.7899 297.916 99.4701 297.437 99.2872C296.958 99.1043 296.436 99.0663 295.936 99.178C295.436 99.2897 294.98 99.5462 294.625 99.9154C294.269 100.285 294.03 100.75 293.938 101.254C293.845 101.758 293.903 102.278 294.104 102.75C294.305 103.221 294.641 103.623 295.069 103.905C295.496 104.187 295.998 104.337 296.51 104.336C297.214 104.322 297.883 104.029 298.371 103.522C298.859 103.015 299.126 102.335 299.114 101.631ZM246.685 101.631C246.667 101.119 246.498 100.624 246.2 100.207C245.902 99.7907 245.489 99.4709 245.01 99.2878C244.532 99.1047 244.01 99.0663 243.51 99.1775C243.01 99.2886 242.554 99.5444 242.199 99.9129C241.843 100.281 241.604 100.747 241.51 101.25C241.417 101.754 241.474 102.274 241.674 102.745C241.874 103.217 242.208 103.619 242.635 103.902C243.062 104.184 243.563 104.335 244.075 104.336C244.424 104.33 244.769 104.255 245.089 104.115C245.409 103.976 245.698 103.775 245.941 103.524C246.183 103.273 246.374 102.976 246.501 102.652C246.629 102.327 246.692 101.98 246.685 101.631ZM244.048 111.626C244.848 111.9 245.691 112.033 246.537 112.018H294.475C295.321 112.034 296.163 111.901 296.963 111.626C297.726 111.354 298.398 110.875 298.902 110.241C299.407 109.608 299.724 108.846 299.817 108.042H241.194C241.288 108.846 241.605 109.608 242.109 110.241C242.614 110.875 243.285 111.354 244.048 111.626ZM259.73 101.631C259.711 101.119 259.543 100.624 259.245 100.207C258.947 99.7907 258.533 99.4709 258.055 99.2878C257.576 99.1047 257.055 99.0663 256.555 99.1775C256.055 99.2886 255.599 99.5444 255.243 99.9129C254.887 100.281 254.648 100.747 254.555 101.25C254.462 101.754 254.519 102.274 254.719 102.745C254.919 103.217 255.253 103.619 255.68 103.902C256.107 104.184 256.608 104.335 257.12 104.336C257.469 104.33 257.813 104.255 258.133 104.115C258.453 103.976 258.743 103.775 258.985 103.524C259.228 103.273 259.418 102.976 259.546 102.652C259.674 102.327 259.736 101.98 259.73 101.631ZM267.182 20.9632H273.829L273.113 12.8484L280.342 13.6261V7.27625L273.113 8.04716L273.829 0H267.182L267.899 8.04716L260.67 7.27625V13.6531L267.899 12.8484L267.182 20.9632ZM265.606 31.7017C265.646 32.6585 265.966 33.5825 266.526 34.3591C267.086 35.1358 267.862 35.7308 268.758 36.0703C269.653 36.4099 270.628 36.479 271.563 36.2691C272.497 36.0593 273.349 35.5797 274.013 34.8899C274.678 34.2001 275.125 33.3304 275.299 32.3888C275.473 31.4472 275.367 30.4752 274.994 29.5933C274.621 28.7114 273.997 27.9586 273.199 27.4282C272.402 26.8978 271.467 26.6132 270.509 26.6097C269.855 26.6194 269.209 26.758 268.608 27.0175C268.008 27.2771 267.464 27.6525 267.009 28.1223C266.554 28.5921 266.195 29.1471 265.955 29.7555C265.714 30.3639 265.596 31.0137 265.606 31.6679V31.7017ZM286.062 101.631C286.044 101.119 285.875 100.624 285.577 100.207C285.279 99.7907 284.866 99.4709 284.387 99.2878C283.909 99.1047 283.387 99.0663 282.887 99.1775C282.387 99.2886 281.931 99.5444 281.576 99.9129C281.22 100.281 280.981 100.747 280.887 101.25C280.794 101.754 280.851 102.274 281.051 102.745C281.251 103.217 281.585 103.619 282.012 103.902C282.439 104.184 282.94 104.335 283.452 104.336C283.801 104.33 284.146 104.256 284.467 104.117C284.787 103.978 285.077 103.777 285.32 103.526C285.562 103.275 285.753 102.978 285.88 102.653C286.008 102.327 286.07 101.98 286.062 101.631ZM272.896 101.631C272.878 101.119 272.709 100.624 272.411 100.207C272.113 99.7907 271.699 99.4709 271.221 99.2878C270.743 99.1047 270.221 99.0663 269.721 99.1775C269.221 99.2886 268.765 99.5444 268.409 99.9129C268.054 100.281 267.814 100.747 267.721 101.25C267.628 101.754 267.685 102.274 267.885 102.745C268.085 103.217 268.419 103.619 268.846 103.902C269.273 104.184 269.774 104.335 270.286 104.336C270.636 104.33 270.981 104.256 271.302 104.117C271.622 103.978 271.913 103.778 272.156 103.526C272.399 103.275 272.59 102.978 272.718 102.653C272.846 102.328 272.909 101.98 272.903 101.631H272.896ZM91.9299 237.804C81.9149 238.034 64.2585 240.062 55.3187 242.902C61.4048 250.233 77.303 260.762 86.8311 265.218C79.4264 268.038 66.1384 275.179 60.5933 280.339C67.7343 284.768 83.4161 289.806 90.8276 291.476C86.5133 294.986 77.6276 305.143 74.3681 310.613C80.5016 312.534 93.1268 314.204 101.14 314.671C98.5705 320.04 95.6424 329.548 94.8715 335.695C98.841 336.101 112.109 335.411 118.682 333.937C118.12 339.347 118.33 349.111 119.223 353.331C126.049 352.207 132.759 350.46 139.266 348.111C140.51 352.912 144.973 363.245 146.536 365.693C152.079 364.583 157.446 362.724 162.488 360.168C164.08 363.998 165.959 367.703 168.107 371.251C173.003 366.288 178.569 364.252 183.87 364.252C194.69 364.252 203.143 372.441 204.935 383.734C205.483 377.148 205.936 370.358 206.166 363.684C198.051 346.643 178.44 336.209 158.931 357.47C158.687 357.003 153.095 348.273 150.816 339.272C146.542 341.416 136.947 344.756 128.818 345.406C127.682 339.367 126.79 329.284 127.195 322.772C119.422 322.902 111.652 322.379 103.967 321.21C104.954 314.414 108.775 304.561 111.405 299.158C106.056 297.271 95.6221 293.146 90.8209 289.556C94.0668 284.748 101.35 276.423 105.698 271.892C100.586 267.882 92.4235 260.478 88.6366 255.703C94.3508 251.355 102.418 247.46 109.221 244.884C104.488 235.633 101.695 220.479 102.459 211.931C93.8639 202.951 80.5557 186.302 76.5389 176.165C70.5542 192.854 71.1966 223.623 91.9299 237.804ZM191.478 461.954C192.431 466.208 193.358 471.983 191.715 478.792C200.215 479.414 209.655 474.654 213.692 466.126C207.369 465.295 204.164 461.995 202.507 459.269C194.264 458.83 185.223 451.939 186.21 440.808C177.744 435.202 176.56 420.663 186.21 411.054C190.785 406.631 196.742 403.916 203.082 403.365C203.353 400.728 203.63 397.956 203.907 395.176C188.624 394.169 173.774 399.024 167.147 412.806C160.696 426.208 161.244 437.001 149.734 444.237C155.996 451.283 166.944 449.545 172.949 447.239C172.949 447.239 173.625 458.363 168.398 465.322C176.155 467.952 184.154 467.235 191.478 461.954ZM229.854 449.018C226.947 450.427 223.727 451.065 220.502 450.871C217.548 454.974 213.169 457.827 208.221 458.87C214.301 464.24 228.617 462.238 229.854 449.018ZM203.968 454.617C211.805 454.617 217.134 448.707 218.304 445.15C215.628 445.673 212.88 445.717 210.189 445.278C209.36 443.723 208.193 442.374 206.774 441.329C201.901 443.901 196.231 444.523 190.917 443.067C191.052 449.018 196.232 454.597 203.968 454.597V454.617ZM201.371 421.292C201.621 417.681 202.047 413.245 202.575 408.14C192.81 409.35 184.175 416.667 184.175 426.932C184.175 434.797 189.659 439.104 196.462 439.104C198.924 439.07 201.354 438.536 203.603 437.534C205.852 436.531 207.875 435.083 209.547 433.275C206.61 432.912 203.749 432.091 201.067 430.841C201.391 428.034 200.878 426.465 199.802 425.39C197.848 423.436 194.23 424.038 192.059 426.256C191.62 421.211 197.713 419.101 201.371 421.292ZM491.028 238.446C501.307 234.071 515.778 224.245 522.459 217.415C523.345 218.558 525.746 224.292 518.159 230.663C512.634 235.302 501.422 240.448 492.753 243.822C488.932 249.529 481.73 255.94 471.35 262.824C491.414 259.68 515.609 251.707 527.349 240.15C549.664 218.213 537.756 191.461 534.828 185.774C520.39 203.776 492.753 222.872 467.015 233.043C475.698 234.118 484.618 235.944 491.028 238.446ZM503.985 158.049C506.866 160.172 508.367 166.353 504.296 173.393C497.256 185.565 485.084 196.249 474.413 204.634C473.967 212.458 470.532 221.54 467.015 228.303C482.717 217.895 500.725 201.93 508.908 191.198C519.552 177.267 523.947 163.323 521.993 149.745C520.039 136.166 512.127 126.685 507.535 122.878C503.478 133.542 486.525 160.747 471.431 177.179C473.338 183.923 474.363 190.885 474.481 197.892C487.465 187.14 501.78 165.677 503.985 158.049ZM540.555 249.705C524.197 258.368 495.086 267.395 472.256 267.199C477.543 270.366 482.498 274.056 487.045 278.215C496.655 277.647 509.658 274.706 517.3 271.629C517.455 272.981 517.584 279.067 508.739 281.772C502.734 283.612 493.368 283.801 486.47 283.943C480.952 287.453 472.466 290.996 465.582 293.336C472.751 294.348 479.981 294.872 487.221 294.905C499.393 294.905 510.287 293.64 517.117 291.436C523.629 289.305 544.295 280.136 540.555 249.705ZM464.466 297.582C467.639 301.259 470.49 305.203 472.986 309.369C484.841 312 499.637 311.398 499.637 311.398C499.637 311.398 498.758 317.714 490.535 318.16C486.91 318.363 475.759 316.49 471.086 315.151C469.112 315.983 460.469 318.106 451.516 319.256C464.074 323.712 482.318 328.358 493.794 328.358C515.136 328.358 524.664 309.667 525.151 299.868C501.354 303.547 476.591 300.923 464.466 297.582ZM452.24 336.128C458.742 339.217 465.68 341.292 472.811 342.281C472.811 342.281 471.769 348.367 461.93 347.123C456.52 346.447 450.055 342.342 448.581 341.355C444.334 341.943 435.368 341.747 431.959 341.051C442.671 348.692 461.795 358.978 475.15 358.978C489.601 358.978 501.003 344.351 503.944 337.338C489.25 337.142 464.473 331.191 449.284 322.732C450.623 327.116 451.611 331.6 452.24 336.141V336.128ZM427.395 355.448C431.283 359.606 437.396 362.541 437.396 362.541C436.846 363.488 436.057 364.274 435.108 364.82C434.158 365.366 433.082 365.653 431.986 365.652C427.253 365.652 422.059 359.092 422.059 359.092C417.455 358.665 412.908 357.754 408.494 356.374C416.081 365.997 432.467 381.516 448.317 381.516C460.49 381.516 470.227 372.536 472.966 366.822C459.11 364.827 439.276 354.521 428.72 343.918C428.683 347.797 428.239 351.661 427.395 355.448ZM379.626 371.001C378.812 372.977 377.701 374.817 376.333 376.458C377.536 381.131 375.934 383.369 373.026 382.849C372.898 381.006 372.485 379.195 371.802 377.479C371.802 377.479 365.04 372.029 360.874 371.001C365.709 375.295 370.233 384.742 369.077 394.784C382.939 394.358 383.967 380.177 379.606 370.974L379.626 371.001ZM404.288 361.054C402.976 364.441 401.487 367.757 399.825 370.987C400.808 372.642 401.94 374.204 403.206 375.653C403.071 376.654 397.898 379.4 394.246 372.333C390.787 371.624 387.397 370.61 384.116 369.304C388.545 378.216 392.434 385.533 398.587 389.516C407.723 395.48 422.377 394.142 427.104 387.569C419.091 383.207 409.495 372.029 404.268 361.027L404.288 361.054ZM431.831 244.877C438.641 247.467 446.708 251.362 452.415 255.697C448.629 260.471 440.473 267.869 435.354 271.886C439.682 276.416 446.965 284.734 450.231 289.549C445.437 293.14 434.996 297.265 429.654 299.151C432.284 304.561 436.105 314.407 437.092 321.203C429.4 322.38 421.623 322.91 413.843 322.786C414.269 329.298 413.356 339.38 412.22 345.419C404.105 344.743 394.496 341.429 390.222 339.286C387.957 348.286 382.365 357.016 382.108 357.483C362.612 336.222 342.967 346.663 334.873 363.698C335.103 370.372 335.549 377.161 336.104 383.748C337.896 372.455 346.349 364.266 357.168 364.266C362.47 364.266 368.042 366.294 372.931 371.265C375.079 367.725 376.957 364.029 378.551 360.208C383.593 362.765 388.96 364.623 394.503 365.733C396.072 363.278 400.528 352.946 401.772 348.151C408.28 350.5 414.989 352.248 421.816 353.372C422.709 349.152 422.925 339.36 422.357 333.977C428.93 335.451 442.198 336.141 446.174 335.735C445.396 329.561 442.468 320.081 439.898 314.711C447.912 314.238 460.537 312.568 466.67 310.654C463.411 305.183 454.498 295.026 450.211 291.517C457.649 289.86 473.304 284.808 480.445 280.379C474.907 275.219 461.619 268.078 454.207 265.259C463.736 260.789 479.634 250.26 485.72 242.943C476.76 240.062 459.11 238.034 449.088 237.804C469.822 223.603 470.464 192.854 464.493 176.131C460.476 186.275 447.168 202.917 438.58 211.897C439.337 220.451 436.565 235.599 431.811 244.85L431.831 244.877ZM251.953 469.278C251.953 469.278 255.855 478.583 260.481 481.632C263.388 480.611 268.595 475.783 270.563 470.765C272.592 475.783 277.738 480.611 280.646 481.632C285.271 478.583 289.173 469.278 289.173 469.278C290.357 473.274 296.429 479.78 304.415 479.191C297.322 472.098 300.52 452.818 303.442 448.964C290.336 448.47 279.537 451.669 270.563 467.675C261.596 451.642 250.79 448.47 237.692 448.964C240.606 452.805 243.778 472.098 236.718 479.191C244.643 479.752 250.723 473.247 251.899 469.251L251.953 469.278ZM308.696 491.735C299.736 491.35 292.338 483.621 289.633 478.813C286.658 483.749 281.342 487.604 281.342 487.604C277.555 486.603 272.382 482.478 270.563 479.313C268.744 482.478 263.571 486.603 259.784 487.604C259.784 487.604 254.476 483.749 251.493 478.813C248.789 483.6 241.391 491.35 232.431 491.735C233.709 493.642 239.964 496.976 245.854 494.285C244.961 497.537 244.664 501.561 245.313 504.32C248.609 504.47 251.903 503.964 255.003 502.832C255.355 505.814 256.998 510.67 260.339 513.158C262.983 513.158 269.359 510.075 270.563 508.174C271.767 510.075 278.144 513.158 280.788 513.158C284.128 510.67 285.772 505.814 286.123 502.832C289.223 503.964 292.517 504.47 295.814 504.32C296.49 501.561 296.172 497.558 295.273 494.285C301.109 496.949 307.364 493.649 308.642 491.708L308.696 491.735ZM342.764 518.561C347.045 516.607 350.135 511.305 350.947 506.119C348.043 507.491 344.86 508.17 341.649 508.1C331.952 508.1 319.759 502.69 308.716 497.815C306.868 499.187 304.679 500.024 302.387 500.236C313.531 503.664 335.434 515.789 337.044 523.62C338.119 528.833 334.717 530.828 334.717 530.828C329.842 522.869 317.284 510.541 300.527 504.347C300.561 506.012 300.386 507.675 300.006 509.297C300.006 509.297 296.625 510.129 289.376 508.878C295.692 514.152 312.287 532.769 314.085 546.896C315.289 556.329 308.676 556.762 308.676 556.762C307.736 542.561 300.297 527.9 286.867 513.158C286.867 513.158 284.669 516.614 281.741 518.352C278.525 517.707 275.451 516.488 272.666 514.754C274.249 533.466 275.189 557.776 274.201 565.14C273.525 570.259 270.536 572.41 270.536 572.41C270.536 572.41 267.554 570.259 266.871 565.14C265.89 557.776 266.824 533.466 268.406 514.754C265.621 516.488 262.547 517.707 259.331 518.352C256.41 516.614 254.205 513.158 254.205 513.158C240.755 527.873 233.316 542.547 232.37 556.735C232.37 556.735 225.783 556.302 226.96 546.868C228.759 532.742 245.353 514.125 251.669 508.851C244.447 510.102 241.046 509.27 241.046 509.27C240.661 507.649 240.484 505.986 240.518 504.32C223.761 510.501 211.204 522.842 206.328 530.801C206.328 530.801 202.947 528.773 204.002 523.593C205.611 515.796 227.514 503.637 238.659 500.208C236.367 499.997 234.177 499.16 232.329 497.788C221.286 502.677 209.101 508.073 199.397 508.073C196.185 508.143 193.002 507.464 190.098 506.092C190.91 511.278 194 516.58 198.281 518.534C183.296 529.077 192.546 553.793 172.449 549.147C183.661 569.955 206.328 572.045 206.328 572.045C201.331 561.036 207.62 527.461 237.678 512.191C219.156 530.659 210.723 553.049 215.633 568.839C220.143 583.338 234.797 589.207 245.833 589.464C238.03 565.492 242.838 538.071 259.033 520.766C252.095 539.7 242.337 590.296 270.529 600C298.701 590.296 288.943 539.714 282.025 520.766C298.221 538.044 303.029 565.492 295.225 589.464C306.261 589.207 320.922 583.338 325.426 568.839C330.342 553.049 321.903 530.659 303.381 512.191C333.399 527.461 339.688 561.036 334.663 572.045C334.663 572.045 357.337 569.955 368.542 549.147C348.445 553.793 357.696 529.077 342.71 518.534L342.764 518.561ZM134.587 337.372C141.637 336.221 148.462 333.962 154.806 330.677C155.793 335.208 158.518 343.566 160.953 348.043C167.715 341.605 176.601 338.961 184.925 340.368C195.312 342.126 201.831 348.827 206.335 354.569C206.335 333.605 201.601 317.552 199.518 312.02C232.349 310.498 258.804 301.2 270.523 295.222C282.228 301.2 308.689 310.498 341.527 312.02C339.498 317.552 334.711 333.605 334.711 354.569C339.228 348.827 345.74 342.126 356.127 340.368C364.444 338.961 373.317 341.605 380.092 348.043C382.534 343.566 385.252 335.194 386.239 330.677C392.576 333.958 399.39 336.217 406.432 337.372C407.108 331.367 407.703 323.124 406.824 316.564C413.749 316.781 421.6 316.882 429.288 315.766C428.058 310.133 423.202 300.68 420.004 295.432C426.874 293.261 435.861 290.022 440.291 287.378C435.914 281.624 431.047 276.259 425.745 271.345C431.033 267.734 438.911 261.086 442.299 257.232C436.95 253.661 428.991 249.793 422.783 247.433C431.276 235.207 432.034 215.569 431.04 207.65C422.682 227.065 401.482 244.37 387.761 253.032C381.506 256.982 383.785 264.481 385.786 267.801C404.471 298.861 370.503 322.008 339.803 306.617C346.497 306.691 353.253 300.997 354.193 295.919C352.063 297.758 343.373 296.751 340.776 294.37C344.726 292.301 345.665 290.205 345.868 288.244C340.986 291.246 331.106 291.659 328.192 286.587C311.962 286.147 301.203 273.488 300.006 269.83C298.803 273.718 296.869 280.514 296.226 287.216C291.831 284.234 284.325 277.492 280.409 268.349C275.968 274.744 272.609 281.826 270.469 289.312C268.328 281.826 264.97 274.744 260.528 268.349C256.613 277.492 249.106 284.234 244.711 287.216C244.035 280.514 242.134 273.691 240.931 269.83C239.741 273.488 228.955 286.147 212.745 286.587C209.831 291.659 199.958 291.246 195.069 288.244C195.272 290.205 196.212 292.301 200.161 294.37C197.591 296.751 188.874 297.752 186.751 295.919C187.684 300.997 194.447 306.691 201.135 306.617C170.461 322.008 136.494 298.861 155.151 267.801C157.179 264.481 159.431 256.982 153.176 253.032C139.469 244.37 118.269 227.065 109.897 207.65C108.903 215.569 109.661 235.207 118.154 247.433C111.946 249.807 103.987 253.661 98.6381 257.232C102.019 261.086 109.904 267.734 115.192 271.345C109.916 276.27 105.075 281.642 100.721 287.398C105.184 290.056 114.171 293.282 121.008 295.452C117.836 300.7 112.954 310.154 111.723 315.787C119.412 316.902 127.277 316.801 134.188 316.585C133.336 323.124 133.91 331.353 134.587 337.372ZM373.885 412.779C367.258 398.997 352.408 394.142 337.125 395.149C337.402 397.962 337.679 400.701 337.95 403.338C344.289 403.889 350.247 406.604 354.822 411.027C364.458 420.663 363.281 435.202 354.822 440.781C355.809 451.912 346.768 458.803 338.531 459.242C336.874 461.947 333.662 465.268 327.34 466.099C331.37 474.654 340.837 479.448 349.304 478.772C347.66 471.962 348.587 466.187 349.54 461.934C356.864 467.215 364.864 467.952 372.634 465.274C367.427 458.316 368.083 447.192 368.083 447.192C374.087 449.498 385.036 451.249 391.298 444.189C379.788 436.974 380.336 426.181 373.885 412.779ZM332.797 458.85C327.862 457.799 323.496 454.947 320.55 450.85C317.316 451.057 314.083 450.426 311.164 449.018C312.435 462.238 326.717 464.24 332.797 458.85ZM350.135 443.047C344.818 444.504 339.146 443.882 334.271 441.309C332.862 442.355 331.707 443.705 330.89 445.258C328.188 445.701 325.428 445.657 322.741 445.129C323.918 448.686 329.24 454.597 337.077 454.597C344.915 454.597 349.966 449.018 350.135 443.047ZM344.556 439.111C351.359 439.111 356.85 434.824 356.85 426.939C356.85 416.674 348.208 409.357 338.443 408.146C338.964 413.252 339.397 417.688 339.647 421.299C343.305 419.081 349.398 421.191 348.959 426.242C346.788 424.024 343.17 423.422 341.216 425.377C340.141 426.452 339.634 428.021 339.951 430.827C337.27 432.077 334.408 432.899 331.471 433.262C333.142 435.072 335.164 436.524 337.413 437.53C339.663 438.535 342.093 439.073 344.556 439.111ZM323.783 429.109C324.979 432.797 327.184 436.076 330.146 438.577C329.403 439.257 328.724 440.004 328.117 440.808C322.707 441.106 316.784 438.421 316.784 438.421C316.851 440.364 317.077 442.297 317.46 444.203H299.269C283.932 444.203 274.891 452.609 270.482 459.161C266.08 452.609 257.032 444.203 241.702 444.203H223.511C223.892 442.297 224.118 440.364 224.187 438.421C224.187 438.421 218.263 441.126 212.854 440.808C212.247 440.004 211.568 439.257 210.825 438.577C213.787 436.076 215.991 432.797 217.188 429.109C213.359 429.133 209.543 428.648 205.841 427.669C205.408 419.013 211.021 383.038 211.021 354.596C211.021 332.55 205.828 316.355 205.828 316.355C243.805 313.771 270.509 300.531 270.509 300.531C270.509 300.531 297.22 313.751 335.15 316.355C335.15 316.355 329.95 332.55 329.95 354.596C329.95 383.065 335.569 419.013 335.13 427.669C331.428 428.648 327.612 429.133 323.783 429.109ZM275.04 365.043C287.428 351.667 295.773 340.361 298.316 337.825C301.994 334.14 309.088 339.177 310.873 343.458L304.625 349.706C307.715 352.452 311.719 354.474 314.092 352.107C317.385 348.807 315.681 341.734 310.278 336.337C305.815 331.874 300.351 329.298 294.793 329.014C292.311 337.385 283.378 349.301 275.04 358.917V365.043ZM307.499 343.018C305.984 340.807 301.846 338.129 300.243 339.732C298.836 341.139 299.959 344.601 302.732 347.786L307.499 343.018ZM275.04 379.657C289.423 365.578 304.476 358.511 309.217 355.502C306.843 354.825 304.253 353.223 301.724 350.694C299.595 348.661 298.028 346.112 297.173 343.296C295.205 345.581 286.874 356.462 275.04 368.992V379.657ZM255.429 351.099L244.826 361.703L259.148 371.752C260.751 370.264 264.132 366.883 265.485 365.415L255.429 351.099ZM248.991 341.923L235.656 355.265L242.581 360.12L253.854 348.854L248.991 341.923ZM226 342.565L222.47 342.011L223.714 349.957C223.882 351.039 224.346 352.053 225.056 352.887C225.766 353.72 226.694 354.34 227.735 354.678C228.777 355.016 229.892 355.058 230.956 354.8C232.02 354.542 232.992 353.994 233.763 353.216L246.922 340.057C247.698 339.288 248.247 338.32 248.507 337.259C248.768 336.198 248.729 335.085 248.397 334.045C248.065 333.004 247.451 332.076 246.624 331.362C245.797 330.648 244.788 330.177 243.71 330.001L235.764 328.757L236.319 332.287C235.886 332.185 224.147 330.393 224.147 330.393C224.147 330.393 225.939 342.173 226.047 342.565H226ZM243.46 410.905L237.211 417.154C232.917 415.368 227.893 408.275 231.572 404.596C234.561 401.607 249.661 390.598 266.012 374.423V368.823L264.274 370.575C255.159 379.69 235.095 397.421 222.733 401.093C223.017 406.652 225.594 412.116 230.057 416.586C235.467 421.996 242.527 423.686 245.827 420.393C248.193 418.006 246.165 413.996 243.46 410.905ZM234.31 406.03H234.229C234.126 406.069 234.024 406.115 233.925 406.165L233.824 406.219C233.701 406.293 233.587 406.382 233.485 406.483C233.301 406.672 233.169 406.904 233.1 407.159C233.1 407.159 233.1 407.213 233.1 407.247C233.076 407.342 233.06 407.44 233.053 407.538C233.036 408.571 233.328 409.586 233.891 410.452C234.612 411.744 235.598 412.869 236.785 413.752L241.553 409.019C238.828 406.665 235.96 405.509 234.277 406.03H234.31ZM249.255 415.497C251.683 411.676 256.755 401.134 266.012 389.658V378.21C252.143 391.687 239.531 401.316 237.049 403.453C239.866 404.308 242.414 405.876 244.447 408.004C246.942 410.533 248.565 413.123 249.221 415.497H249.255ZM272.396 420.231V420.19C274.415 419.764 276.225 418.656 277.523 417.052C278.821 415.448 279.526 413.446 279.522 411.383C279.517 409.319 278.802 407.321 277.497 405.723C276.192 404.125 274.376 403.025 272.355 402.608V358.856C269.968 358.856 268.704 360.634 268.704 363.961V402.635C266.684 403.056 264.871 404.161 263.569 405.762C262.268 407.363 261.558 409.363 261.558 411.426C261.558 413.489 262.268 415.49 263.569 417.091C264.871 418.692 266.684 419.796 268.704 420.217C267.777 423.598 266.803 426.181 264.098 431.361C263.874 431.791 263.83 432.292 263.975 432.754C264.12 433.216 264.443 433.602 264.873 433.826C265.302 434.05 265.803 434.095 266.266 433.95C266.728 433.804 267.113 433.481 267.338 433.052C268.525 430.832 269.598 428.553 270.55 426.222C271.502 428.553 272.574 430.832 273.762 433.052C273.986 433.481 274.372 433.804 274.834 433.95C275.296 434.095 275.797 434.05 276.227 433.826C276.656 433.602 276.979 433.216 277.124 432.754C277.27 432.292 277.225 431.791 277.001 431.361C274.262 426.202 273.295 423.591 272.362 420.251L272.396 420.231ZM283.087 399.883L293.69 389.286L279.408 379.258C278.211 380.34 276.23 382.253 275.074 383.477V388.468L283.087 399.883ZM289.525 409.059L302.86 395.724L295.902 390.862L284.629 402.155L289.525 409.059ZM312.517 408.383L316.047 408.938L314.802 400.992C314.634 399.91 314.17 398.895 313.46 398.062C312.75 397.228 311.822 396.608 310.781 396.27C309.739 395.932 308.624 395.89 307.56 396.148C306.496 396.406 305.524 396.955 304.753 397.732L291.533 410.946C290.758 411.718 290.212 412.69 289.956 413.754C289.699 414.818 289.743 415.932 290.081 416.973C290.419 418.014 291.039 418.941 291.872 419.651C292.705 420.36 293.718 420.826 294.799 420.995L302.738 422.239L302.191 418.709C302.617 418.81 314.363 420.609 314.363 420.609C314.363 420.609 312.564 408.863 312.435 408.444L312.517 408.383Z" fill="white"/>
</svg>
