<svg xmlns="http://www.w3.org/2000/svg" viewBox="0 0 541 600">
  <title>back_eagle_mob</title>
  <path d="M344.83,78.44l-6.2.64V74l6.2.63-.61-6.39h4.95l-.62,6.37,6.2-.64v5.09l-6.2-.61.61,6.37h-4.94Zm1.86,49.37c2.56,0,4.64-13.42,4.64-20.11,0-3.66-2.08-6-4.64-6S342,104,342,107.7C342,114.39,344.12,127.81,346.69,127.81Zm23.12,10.65c1.65-5.17,3.51-13.05,3.51-16.85,0-7-3.84-14.64-17.36-17,0,8.55-4.06,29-9,29h-.55c-4.92,0-9-20.57-9-29-13.48,2.37-17.22,10.06-17.22,17,0,3.8,1.87,11.68,3.51,16.85ZM346.69,97.51a3.8,3.8,0,0,0,2.15-.59A3.82,3.82,0,0,0,350.55,93a3.83,3.83,0,0,0-3-3.06,3.92,3.92,0,0,0-2.22.2,3.85,3.85,0,0,0-1.73,1.41,3.79,3.79,0,0,0,.42,4.81,3.66,3.66,0,0,0,1.21.84A3.71,3.71,0,0,0,346.69,97.51Zm19.35,51s.95-2.34,2.17-5.72H325.32c1.21,3.38,2.16,5.72,2.16,5.72ZM430.1,173s.53-11.54,6.21-17.16a10.59,10.59,0,0,0,8.24,6.39c-8.91-10.08,2-25.22,6.32-31.73,3.43-5.12,2.48-8.73,1.46-10.18-3.27-4.66-10.71-3.08-17.58-3.14,11.25,7.6-.23,17.58-5.84,30.58S430.1,173,430.1,173ZM417.52,105.8c11.77,10.74,18.07,7.75,27.43,8.06s10.43,4.34,10.43,4.34h.3c-.5-6.7-11.68-4.8-22.56-12-7.71-5.1-12.3-12.22-15.69-14.93s-13.28-.61-20.37,4c0,0,6.59-2.16,20.48,10.51Zm-47.78,42.78c11.33,0,22.37-7.56,26.77-23.38s15.61-18.42,15.61-18.42c-2.44-2.7-13.58-10.82-18-7.75,0,0-4.29,2.26-6,19.78s-11,26.8-17.62,27.62Zm-75.43-31.65H278.62c5.27,24.48,25,31.52,45.51,31.52l-.67-1.84c-16,0-26.34-12-29.13-29.68ZM191.85,84.79h5l-.61-6.35,6.2.64V74l-6.2.63.62-6.36h-5l.62,6.36L186.28,74v5.09l6.19-.64Zm2.48,43c2.57,0,4.65-13.42,4.65-20.11,0-3.66-2.08-6-4.65-6s-4.64,2.39-4.64,6C189.69,114.39,191.77,127.81,194.33,127.81Zm23,10.65c1.65-5.17,3.51-13.05,3.51-16.85,0-6.94-3.74-14.63-17.21-17,0,8.39-4.06,29-9,29h-.55c-4.92,0-9-20.41-9-29-13.52,2.36-17.36,10-17.36,17,0,3.8,1.86,11.68,3.51,16.85Zm-23-40.95a3.8,3.8,0,0,0,2.15-.59,3.84,3.84,0,0,0,1.45-1.69,3.82,3.82,0,0,0-.76-4.2A3.82,3.82,0,0,0,195.22,90a4,4,0,0,0-2.23.2,3.91,3.91,0,0,0-1.73,1.41,3.84,3.84,0,0,0-.65,2.13,3.77,3.77,0,0,0,3.72,3.82Zm-19.36,51h38.55s.95-2.34,2.16-5.72H172.81C174,146.17,175,148.51,175,148.51Zm-70.29,7.36c5.69,5.62,6.22,17.16,6.22,17.16s6.81-12.23,1.2-25.24-17.09-23-5.85-30.58c-6.87.06-14.31-1.52-17.58,3.14-1,1.45-2,5.06,1.47,10.18,4.35,6.51,15.22,21.64,6.31,31.73A10.56,10.56,0,0,0,104.68,155.87Zm-8.64-42c9.36-.31,15.66,2.7,27.43-8.06C137.36,93.13,144,95.29,144,95.29c-7.08-4.61-17-6.66-20.37-4s-8,9.83-15.7,14.93c-10.89,7.18-22.07,5.28-22.57,12h.3S86.69,114.17,96,113.86Zm32.83-7.08s11.23,2.61,15.62,18.42,15.44,23.38,26.76,23.38l-.67-2.15c-6.59-.82-15.88-10.22-17.62-27.62S146.91,99,146.91,99c-4.45-3.07-15.6,5-18,7.75Zm88.72,39.83-.68,1.84c20.52,0,40.25-7,45.51-31.52H246.69c-2.79,17.64-13.14,29.68-29.1,29.68ZM69.67,262.82c-10.38-6.88-17.58-13.29-21.4-19-8.67-3.38-19.89-8.52-25.41-13.16-7.59-6.37-5.18-12.1-4.3-13.25,6.68,6.83,21.15,16.66,31.43,21,6.42-2.51,15.33-4.33,24-5.41-25.73-10.15-53.37-29.27-67.81-47.27-2.93,5.69-14.82,32.46,7.48,54.37C25.42,251.71,49.6,259.67,69.67,262.82ZM74,228.3c-3.51-6.77-6.94-15.84-7.39-23.67-10.67-8.39-22.85-19-29.89-31.24-4.06-7-2.57-13.23.31-15.35,2.2,7.66,16.52,29.08,29.51,39.84a81,81,0,0,1,3-20.71c-15.1-16.42-32-43.63-36.1-54.3A44.74,44.74,0,0,0,19,149.74c-1.94,13.49,2.44,27.52,13.08,41.45C40.29,201.91,58.3,217.89,74,228.3ZM53.78,294.88a159.9,159.9,0,0,0,21.64-1.57c-6.88-2.34-15.37-5.89-20.89-9.39-6.89-.14-16.23-.34-22.26-2.18C23.42,279,23.55,273,23.7,271.6A111.82,111.82,0,0,0,54,278.19a92,92,0,0,1,14.79-11c-22.8.2-51.92-8.83-68.3-17.49-3.74,30.43,16.91,39.6,23.42,41.7C30.71,293.61,41.61,294.88,53.78,294.88Zm35.73,24.34c-9-1.15-17.58-3.27-19.58-4.1-4.66,1.35-15.82,3.21-19.45,3-8.22-.45-9.1-6.77-9.1-6.77s14.8.63,26.65-2a85.64,85.64,0,0,1,8.52-11.78c-12.12,3.34-36.89,6-60.68,2.26.48,9.8,10,28.49,31.35,28.49,11.48,0,29.73-4.62,42.29-9.07Zm2.93,22.14c-1.47,1-8,5.09-13.35,5.77-9.84,1.24-10.88-4.84-10.88-4.84a70.66,70.66,0,0,0,20.58-6.16,86.1,86.1,0,0,1,2.94-13.36c-15.18,8.46-40,14.41-54.66,14.6,3,7,14.35,21.64,28.8,21.64,13.35,0,32.46-10.28,43.19-17.93a71.81,71.81,0,0,1-16.62.29Zm40.12,15A66.46,66.46,0,0,1,119,359.13s-5.17,6.56-9.92,6.56a6.3,6.3,0,0,1-5.41-3.11,39.65,39.65,0,0,0,10-7.1,55.56,55.56,0,0,1-1.35-11.56c-10.56,10.6-30.39,20.91-44.25,22.9,2.71,5.72,12.47,14.7,24.65,14.7C108.55,381.48,124.94,366,132.56,356.37ZM180.2,371c-4.16,1-10.93,6.48-10.93,6.48a17.62,17.62,0,0,0-1.22,5.37c-2.91.52-4.51-1.72-3.31-6.4a20.91,20.91,0,0,1-3.29-5.45c-4.36,9.2-3.34,23.38,10.55,23.78-1.19-10.08,3.33-19.52,8.16-23.82Zm-33.34,1.35c-3.66,7.07-8.79,4.32-9,3.32a32.47,32.47,0,0,0,3.38-4.67,102.79,102.79,0,0,1-4.47-9.93c-5.22,11-14.82,22.18-22.85,26.54,4.73,6.58,19.38,7.92,28.52,1.95,6.14-4,10-11.3,14.46-20.21a60.33,60.33,0,0,1-10.11,2.95Zm94.79-116.74c3.62,5.81,6.84,12.84,8,19,3.47-4.2,7.13-11.5,9.61-20.21a100.58,100.58,0,0,1,11.29,17.95,100.58,100.58,0,0,1,11.29-17.95c2.48,8.72,6.14,16,9.61,20.21,1.12-6.23,4.34-13.23,7.95-19,2.76,11.32,13.37,22.31,24.35,23.16-7.13-9.25-7.44-25.25-6.92-30.57a88.16,88.16,0,0,1-9.36-18.56,99.21,99.21,0,0,0-12.66,16.52,148.53,148.53,0,0,0-1.91-19.75c-4.61,4.17-12.94,7.18-17.4,8.35a75.54,75.54,0,0,0-4.95,13.94,77,77,0,0,0-4.92-13.92c-4.46-1.17-12.8-4.18-17.4-8.35a147,147,0,0,0-1.91,19.75,100.82,100.82,0,0,0-12.67-16.52,88,88,0,0,1-9.35,18.56c.5,5.32.2,21.32-6.92,30.57C228.29,278,238.9,267,241.65,255.62Zm82.46-56.56c-4.3,5.74-11.1,9-20.68,8.07,0,0,4.47-7.48,5.27-14-4.47,4.4-14.42,5.91-20.6,5.28,0,0-7.28,11.45-11.54,29.4,6.32-1.92,15.67-7.32,20.17-11.62.84,4,1.79,9.47,2.33,13.89a155.32,155.32,0,0,1,11.07-12.7c1.72,7.57,4.4,17,10.43,25.44-1.17-8.53.68-23.8,4.45-32a24.47,24.47,0,0,0-.9-11.74Zm-107.21,0a24.54,24.54,0,0,0-.89,11.76c3.78,8.22,5.61,23.49,4.44,32,6-8.41,8.71-17.87,10.44-25.44A155.32,155.32,0,0,1,242,230.1c.54-4.44,1.49-9.93,2.33-13.89,4.5,4.3,13.84,9.7,20.17,11.62-4.26-17.93-11.53-29.38-11.53-29.38-6.18.63-16.13-.88-20.61-5.28.8,6.5,5.28,14,5.28,14-9.6.93-16.39-2.33-20.7-8.07Zm66-54.46c8.79,4.34,22.71,8.65,43.28,8.65l37.54.1c2.18,0,3,1.35,2.28,3.79-7.52,25.41-28,31.43-36.12,42.44,0,0,.06-3.43-3.7-11.62-2.55,4.21-9.47,12.09-14,13.1,1.07-2.27,2.35-11.21,1.35-17.23-10.62,9.32-23.73,11.15-30.75,5.77,6,.23,13.77-6.44,17.7-12.37-5.49,1.28-13,0-14.57-1.61,3.45-.85,7.65-3.92,10.17-6.85-3.88-.27-12.31-3.46-14.72-8,3.38.77,8.4-.62,11.65-2.35-2.44-1.33-8.65-8-10.13-13.84ZM333.53,161c0,1.24,1.65,1.61,7.44,3.93a26.15,26.15,0,0,1,8.74,5.41l3.68-6.09c.9-1.48,1.18-3.29-1.83-3.29Zm69.09,45.26c.34-.44,0-.49-.31-.32s-6.65,3.94-20.53-5.09S357.19,188,351.65,187.14c0,0-5.21,3.71-9.95,7.86,12.95,1.1,23.1,9,24.27,11.76.1.25.38.26.46,0A10.86,10.86,0,0,0,366,199s6,3.72,17.72,10.56,17-.78,18.91-3.29Zm-4-36.59c7.83,10.78-3,22.58-3.66,23.39-.47.58-.88.32-.81-.33s-5.62-17.17-38.36-8.42c-.68.19-1.13.2-.47-.48,6.05-4.8,13.22-15.55,15.55-24.23,0,0,19.93-.69,27.75,10.09Zm-17.58-2.26c0-3-4.38-3.84-6.88-3.84a27.06,27.06,0,0,1-2.22,4.52,16.51,16.51,0,0,1,9.13-.66ZM138.39,206.28c1.89,2.51,7.22,10.15,18.94,3.32S175.05,199,175.05,199a10.83,10.83,0,0,0-.44,7.76c.08.24.35.24.46,0,1.17-2.74,11.32-10.67,24.27-11.77-4.73-4.15-10-7.86-10-7.86-5.53.9-16.23,4.69-30.12,13.72S139,206.14,138.72,206,138.06,205.85,138.39,206.28Zm76.42-53c20.6,0,34.49-4.31,43.28-8.64-1.49,5.85-7.7,12.51-10.19,13.86,3.27,1.73,8.29,3.12,11.67,2.35-2.42,4.49-10.82,7.68-14.74,7.95,2.53,2.92,6.72,6,10.19,6.85-1.56,1.58-9.1,2.88-14.58,1.61,3.93,5.93,11.72,12.6,17.71,12.37-7,5.38-20.13,3.55-30.76-5.77-1,6,.29,15,1.35,17.23-4.5-1-11.42-8.89-14-13.09-3.75,8.18-3.7,11.61-3.7,11.61-8.11-11-28.6-17-36.12-42.44-.71-2.4.11-3.79,2.28-3.79ZM207.48,161h-18c-3,0-2.71,1.81-1.84,3.29l3.69,6.09A25.33,25.33,0,0,1,200,165C205.84,162.7,207.48,162.26,207.48,161Zm-37.36-1.43c2.31,8.66,9.46,19.43,15.55,24.24.68.67.23.67-.47.47-32.75-8.72-38.44,7.9-38.38,8.43s-.33.9-.8.33c-.67-.82-11.49-12.62-3.66-23.4S170.12,159.59,170.12,159.59ZM169,168.08a26.17,26.17,0,0,1-2.21-4.51c-2.51,0-6.89.83-6.89,3.84a16.36,16.36,0,0,1,9.1.7ZM270.51,83.79c4.06,0,9.24-16.84,10.57-32.76,0-3.23-4.06-8.16-10.57-8.29-6.54.13-10.58,5.06-10.58,8.29C261.1,65.89,266.54,83.79,270.51,83.79Zm31.74,11.45c1.35-1.68,8.07-14.7,8.07-27.85,0-11.82-14.84-18.34-23.67-18.63-1,16.9-7.59,43.42-16.15,43.42-8.11,0-15.14-26.38-16.15-43.42-8.82.29-23.66,6.81-23.66,18.63,0,13.15,6.71,26.17,8.06,27.85Zm-3.14,6.39a2.5,2.5,0,0,0-.48-1.42,2.61,2.61,0,0,0-2.69-1,2.64,2.64,0,0,0-1.32.74,2.61,2.61,0,0,0-.68,1.33,2.65,2.65,0,0,0,.16,1.5,2.66,2.66,0,0,0,2.41,1.59,2.68,2.68,0,0,0,1.86-.82A2.63,2.63,0,0,0,299.11,101.63Zm-52.43,0a2.5,2.5,0,0,0-.48-1.42,2.61,2.61,0,0,0-4.69,1,2.67,2.67,0,0,0,.16,1.5,2.63,2.63,0,0,0,1,1.15,2.49,2.49,0,0,0,2.46.21,2.37,2.37,0,0,0,.85-.59,2.65,2.65,0,0,0,.56-.87A2.53,2.53,0,0,0,246.68,101.63Zm-2.63,10a7.5,7.5,0,0,0,2.49.39h47.94a7.48,7.48,0,0,0,2.48-.39,4.37,4.37,0,0,0,2.86-3.59H241.19a4.37,4.37,0,0,0,2.86,3.59Zm15.68-10a2.59,2.59,0,0,0-.49-1.42,2.52,2.52,0,0,0-1.19-.92,2.56,2.56,0,0,0-1.5-.11,2.59,2.59,0,0,0-1.31.73,2.74,2.74,0,0,0-.69,1.34,2.67,2.67,0,0,0,.17,1.5,2.56,2.56,0,0,0,1,1.15,2.74,2.74,0,0,0,1.44.44,2.71,2.71,0,0,0,1-.23,2.37,2.37,0,0,0,.85-.59,2.53,2.53,0,0,0,.57-.87A2.71,2.71,0,0,0,259.73,101.63ZM267.18,21h6.65l-.72-8.11,7.23.78V7.28l-7.23.77.72-8h-6.65l.72,8.05-7.23-.77v6.37l7.23-.8ZM265.61,31.7a4.9,4.9,0,0,0,.92,2.66,4.88,4.88,0,0,0,7.48.53,4.87,4.87,0,0,0,1-5.3,4.89,4.89,0,0,0-4.48-3,5,5,0,0,0-1.9.41,4.92,4.92,0,0,0-1.6,1.1A5.08,5.08,0,0,0,266,29.76a4.94,4.94,0,0,0-.34,1.91Zm20.45,69.93A2.61,2.61,0,1,0,282,103.9a2.53,2.53,0,0,0,2.46.22,2.65,2.65,0,0,0,.85-.59,2.7,2.7,0,0,0,.56-.88A2.53,2.53,0,0,0,286.06,101.63Zm-13.16,0a2.61,2.61,0,1,0-5,1.12,2.5,2.5,0,0,0,1,1.15,2.51,2.51,0,0,0,2.45.22,2.81,2.81,0,0,0,.86-.59,2.7,2.7,0,0,0,.56-.88,2.53,2.53,0,0,0,.18-1ZM91.93,237.8c-10,.23-27.67,2.26-36.61,5.1,6.08,7.33,22,17.86,31.51,22.32-7.4,2.82-20.69,10-26.24,15.12,7.14,4.43,22.83,9.47,30.24,11.14-4.32,3.51-13.2,13.66-16.46,19.13,6.13,1.92,18.76,3.59,26.77,4.06a82.77,82.77,0,0,0-6.27,21c4,.4,17.24-.29,23.81-1.76-.56,5.41-.35,15.17.54,19.39a112.82,112.82,0,0,0,20.05-5.22,99.86,99.86,0,0,0,7.27,17.58,62.58,62.58,0,0,0,16-5.52,82.29,82.29,0,0,0,5.62,11.08c4.89-5,10.46-7,15.76-7,10.82,0,19.27,8.19,21.06,19.48.55-6.58,1-13.37,1.24-20.05-8.12-17-27.73-27.47-47.24-6.21-.24-.47-5.83-9.2-8.11-18.2a69.78,69.78,0,0,1-22,6.14,109.68,109.68,0,0,1-1.63-22.64A138.79,138.79,0,0,1,104,321.21c1-6.8,4.81-16.65,7.43-22-5.34-1.89-15.78-6-20.58-9.6,3.25-4.81,10.53-13.14,14.88-17.67-5.11-4-13.28-11.41-17.06-16.19,5.71-4.35,13.78-8.24,20.58-10.82-4.73-9.25-7.53-24.4-6.76-32.95-8.6-9-21.9-25.63-25.92-35.77C70.55,192.85,71.2,223.62,91.93,237.8ZM191.48,462a35.94,35.94,0,0,1,.23,16.84c8.5.62,17.94-4.14,22-12.66-6.32-.83-9.53-4.14-11.18-6.86-8.25-.44-17.29-7.33-16.3-18.46-8.47-5.61-9.65-20.15,0-29.76a27.8,27.8,0,0,1,16.87-7.69c.27-2.63.55-5.4.83-8.18-15.29-1-30.14,3.84-36.76,17.63-6.45,13.4-5.91,24.19-17.42,31.43,6.27,7,17.21,5.31,23.22,3,0,0,.67,11.12-4.55,18.08A24.46,24.46,0,0,0,191.48,462ZM229.85,449a18.73,18.73,0,0,1-9.35,1.85,20.27,20.27,0,0,1-12.28,8C214.3,464.24,228.62,462.24,229.85,449ZM204,454.62c7.83,0,13.16-5.91,14.33-9.47a23,23,0,0,1-8.11.13,11.72,11.72,0,0,0-3.42-3.95,21.72,21.72,0,0,1-15.85,1.74c.13,5.95,5.31,11.53,13.05,11.53Zm-2.6-33.33c.25-3.61.68-8.05,1.2-13.15-9.76,1.21-18.39,8.53-18.39,18.79,0,7.87,5.48,12.17,12.28,12.17a18.19,18.19,0,0,0,13.09-5.83,28.15,28.15,0,0,1-8.48-2.43c.32-2.81-.19-4.38-1.27-5.45-2-1.95-5.57-1.35-7.74.87C191.62,421.21,197.71,419.1,201.37,421.29ZM491,238.45c10.28-4.38,24.75-14.21,31.43-21,.88,1.15,3.29,6.88-4.3,13.25-5.53,4.64-16.74,9.79-25.41,13.16-3.82,5.71-11,12.12-21.4,19,20.06-3.14,44.26-11.11,56-22.67,22.31-21.94,10.41-48.69,7.48-54.38-14.44,18-42.08,37.1-67.81,47.27C475.7,234.12,484.62,235.94,491,238.45Zm13-80.4c2.89,2.12,4.39,8.3.32,15.34-7,12.18-19.22,22.86-29.89,31.24-.44,7.83-3.88,16.91-7.39,23.67,15.7-10.4,33.71-26.37,41.89-37.1,10.64-13.93,15-27.88,13.08-41.46a44.52,44.52,0,0,0-14.45-26.86c-4.06,10.66-21,37.87-36.11,54.3a81,81,0,0,1,3.05,20.71C487.46,187.14,501.78,165.68,504,158.05Zm36.57,91.66c-16.35,8.66-45.46,17.68-68.29,17.49a93,93,0,0,1,14.79,11,111.38,111.38,0,0,0,30.25-6.58c.16,1.35.28,7.44-8.56,10.14-6,1.84-15.37,2-22.27,2.17-5.52,3.51-14,7.06-20.89,9.4a159.89,159.89,0,0,0,21.64,1.56c12.17,0,23.07-1.26,29.9-3.46C523.63,289.3,544.29,280.14,540.55,249.71Zm-76.08,47.87A85.13,85.13,0,0,1,473,309.37c11.85,2.63,26.65,2,26.65,2s-.88,6.31-9.1,6.76c-3.63.2-14.78-1.67-19.45-3-2,.83-10.62,3-19.57,4.11,12.55,4.45,30.8,9.1,42.27,9.1,21.35,0,30.87-18.69,31.36-28.49C501.35,303.55,476.59,300.92,464.47,297.58Zm-12.23,38.55a70.49,70.49,0,0,0,20.57,6.15s-1,6.09-10.88,4.84c-5.41-.67-11.88-4.78-13.35-5.76a71.25,71.25,0,0,1-16.62-.31C442.67,348.69,461.8,359,475.15,359c14.45,0,25.85-14.63,28.79-21.64-14.69-.2-39.47-6.15-54.66-14.61a86.77,86.77,0,0,1,3,13.41Zm-24.85,19.32a38.93,38.93,0,0,0,10,7.09,6.24,6.24,0,0,1-5.41,3.11c-4.74,0-9.93-6.56-9.93-6.56a65.43,65.43,0,0,1-13.57-2.72c7.59,9.63,24,25.15,39.83,25.15,12.17,0,21.91-9,24.65-14.7-13.86-2-33.69-12.3-44.25-22.9A55.25,55.25,0,0,1,427.39,355.45ZM379.63,371a21.1,21.1,0,0,1-3.3,5.46c1.21,4.67-.4,6.91-3.3,6.39a18.08,18.08,0,0,0-1.23-5.37S365,372,360.87,371c4.84,4.3,9.36,13.74,8.21,23.78,13.86-.42,14.89-14.6,10.53-23.81Zm24.66-9.95a102.88,102.88,0,0,1-4.46,9.94,31.43,31.43,0,0,0,3.38,4.66c-.14,1-5.31,3.75-9-3.32a59.61,59.61,0,0,1-10.13-3c4.43,8.92,8.31,16.23,14.47,20.22,9.13,6,23.79,4.62,28.51-1.95-8-4.36-17.61-15.54-22.83-26.54Zm27.54-116.17c6.81,2.59,14.88,6.48,20.59,10.82-3.79,4.77-11.95,12.17-17.07,16.19,4.33,4.53,11.61,12.84,14.88,17.66-4.79,3.59-15.23,7.72-20.58,9.6,2.63,5.41,6.46,15.26,7.44,22.05a139.17,139.17,0,0,1-23.25,1.59,107.55,107.55,0,0,1-1.62,22.63,71,71,0,0,1-22-6.13c-2.26,9-7.86,17.73-8.11,18.19-19.5-21.26-39.14-10.82-47.24,6.22.23,6.67.68,13.46,1.23,20.05,1.8-11.3,10.25-19.48,21.07-19.48a21.8,21.8,0,0,1,15.76,7,82.06,82.06,0,0,0,5.62-11.06,62.2,62.2,0,0,0,15.95,5.52,99.86,99.86,0,0,0,7.27-17.58,112.82,112.82,0,0,0,20.05,5.22c.89-4.22,1.1-14,.54-19.39,6.57,1.47,19.84,2.16,23.81,1.75a82.46,82.46,0,0,0-6.27-21c8-.47,20.64-2.14,26.77-4.06-3.26-5.47-12.17-15.62-16.46-19.13,7.44-1.66,23.09-6.71,30.24-11.14-5.54-5.16-18.83-12.3-26.24-15.12,9.53-4.47,25.42-15,31.51-22.32-9-2.88-26.61-4.91-36.63-5.14,20.73-14.2,21.37-45,15.4-61.67-4,10.14-17.32,26.79-25.91,35.77.76,8.55-2,23.7-6.77,32.95ZM252,469.28s3.9,9.3,8.53,12.35c2.91-1,8.12-5.85,10.08-10.86,2,5,7.18,9.84,10.09,10.86,4.62-3.05,8.52-12.35,8.52-12.35,1.19,4,7.26,10.5,15.25,9.91-7.1-7.09-3.9-26.37-1-30.23-13.1-.49-23.9,2.71-32.88,18.71-9-16-19.77-19.2-32.87-18.71,2.92,3.84,6.09,23.14-1,30.23,7.92.56,14-5.94,15.18-9.94Zm56.75,22.45c-9-.38-16.36-8.11-19.07-12.92a35.06,35.06,0,0,1-8.29,8.79c-3.79-1-9-5.12-10.78-8.29-1.82,3.17-7,7.29-10.78,8.29a35.45,35.45,0,0,1-8.29-8.79c-2.7,4.79-10.1,12.54-19.06,12.92,1.28,1.91,7.53,5.25,13.42,2.56a22.49,22.49,0,0,0-.54,10,25,25,0,0,0,9.69-1.49c.35,3,2,7.84,5.34,10.33,2.64,0,9-3.08,10.22-5,1.21,1.91,7.58,5,10.23,5,3.34-2.49,5-7.35,5.33-10.33a25,25,0,0,0,9.69,1.49,21.94,21.94,0,0,0-.54-10c5.84,2.66,12.09-.64,13.37-2.58Zm34.06,26.83c4.29-1.95,7.38-7.26,8.19-12.44a20.76,20.76,0,0,1-9.3,2c-9.7,0-21.89-5.41-32.93-10.28a12.66,12.66,0,0,1-6.33,2.42c11.14,3.42,33,15.55,34.65,23.38,1.08,5.21-2.32,7.21-2.32,7.21-4.88-8-17.44-20.29-34.19-26.48a20.17,20.17,0,0,1-.52,4.95s-3.39.83-10.63-.42c6.31,5.27,22.91,23.89,24.7,38,1.21,9.43-5.4,9.86-5.4,9.86-.94-14.2-8.38-28.86-21.81-43.6a18.46,18.46,0,0,1-5.13,5.19,27,27,0,0,1-9.07-3.6c1.58,18.72,2.52,43,1.53,50.39-.68,5.12-3.66,7.27-3.66,7.27s-3-2.15-3.67-7.27c-1-7.36-.05-31.67,1.54-50.39a27.15,27.15,0,0,1-9.08,3.6,18.51,18.51,0,0,1-5.12-5.19c-13.45,14.71-20.89,29.39-21.84,43.57,0,0-6.59-.43-5.41-9.86,1.8-14.13,18.39-32.75,24.71-38-7.22,1.25-10.62.42-10.62.42a19.17,19.17,0,0,1-.53-4.95c-16.76,6.18-29.32,18.52-34.19,26.48,0,0-3.38-2-2.33-7.21,1.61-7.79,23.51-20,34.66-23.38a12.57,12.57,0,0,1-6.33-2.42c-11,4.89-23.23,10.28-32.93,10.28a20.71,20.71,0,0,1-9.3-2c.81,5.19,3.9,10.49,8.18,12.44-15,10.55-5.73,35.26-25.83,30.62C183.66,570,206.33,572,206.33,572c-5-11,1.29-44.58,31.35-59.85-18.52,18.47-27,40.86-22.05,56.65,4.51,14.5,19.17,20.37,30.2,20.62-7.8-24-3-51.39,13.2-68.69-6.93,18.93-16.69,69.53,11.5,79.23,28.17-9.7,18.41-60.29,11.49-79.23,16.2,17.27,21,44.72,13.21,68.69,11-.25,25.69-6.12,30.2-20.62,4.91-15.79-3.53-38.18-22.05-56.65,30,15.27,36.31,48.85,31.28,59.85,0,0,22.68-2.08,33.88-22.89-20.09,4.64-10.84-20.07-25.83-30.62ZM134.59,337.37a67.86,67.86,0,0,0,20.22-6.69A81.72,81.72,0,0,0,161,348a28.06,28.06,0,0,1,24-7.67c10.38,1.76,16.9,8.46,21.41,14.2,0-21-4.74-37-6.82-42.55,32.83-1.52,59.28-10.82,71-16.8,11.71,6,38.17,15.28,71,16.8-2,5.53-6.82,21.59-6.82,42.55,4.52-5.74,11-12.44,21.42-14.2a28.05,28.05,0,0,1,24,7.67c2.44-4.47,5.16-12.85,6.15-17.36a67.68,67.68,0,0,0,20.19,6.69c.68-6,1.27-14.25.39-20.81a129.53,129.53,0,0,0,22.47-.79c-1.23-5.64-6.09-15.09-9.29-20.34,6.87-2.17,15.86-5.41,20.29-8.05a124.23,124.23,0,0,0-14.55-16c5.29-3.62,13.17-10.26,16.56-14.12a108.65,108.65,0,0,0-19.52-9.8c8.5-12.22,9.25-31.86,8.26-39.78-8.36,19.42-29.56,36.72-43.28,45.38-6.25,4-4,11.45-2,14.77,18.68,31.06-15.29,54.21-46,38.82,6.7.07,13.45-5.62,14.39-10.7-2.13,1.84-10.82.83-13.41-1.55,4-2.07,4.89-4.17,5.09-6.13-4.88,3-14.76,3.42-17.68-1.65-16.23-.44-27-13.1-28.18-16.76a90.42,90.42,0,0,0-3.78,17.39c-4.4-3-11.9-9.73-15.82-18.87a71,71,0,0,0-9.94,21,71,71,0,0,0-9.94-21c-3.92,9.14-11.42,15.88-15.82,18.87a93,93,0,0,0-3.78-17.39c-1.19,3.66-12,16.32-28.19,16.76-2.91,5.07-12.78,4.66-17.67,1.65.2,2,1.14,4.06,5.09,6.13-2.57,2.38-11.29,3.38-13.41,1.55.93,5.08,7.7,10.77,14.38,10.7-30.67,15.39-64.64-7.76-46-38.82,2-3.32,4.28-10.82-2-14.77-13.71-8.66-34.91-26-43.28-45.38-1,7.92-.24,27.56,8.25,39.78a110.23,110.23,0,0,0-19.51,9.8c3.38,3.86,11.26,10.5,16.55,14.12a125.19,125.19,0,0,0-14.47,16c4.46,2.66,13.45,5.88,20.29,8.05-3.17,5.25-8.06,14.7-9.29,20.34a129.59,129.59,0,0,0,22.47.79C133.34,323.12,133.91,331.35,134.59,337.37Zm239.3,75.41c-6.63-13.78-21.48-18.64-36.77-17.63.28,2.81.56,5.55.83,8.19A27.67,27.67,0,0,1,354.82,411c9.64,9.63,8.46,24.17,0,29.75,1,11.13-8.05,18-16.29,18.46-1.66,2.71-4.87,6-11.19,6.86a22.89,22.89,0,0,0,22,12.67,36.06,36.06,0,0,1,.24-16.84,24.32,24.32,0,0,0,23.09,3.34c-5.2-6.95-4.55-18.08-4.55-18.08,6,2.31,17,4.06,23.22-3C379.79,437,380.34,426.18,373.89,412.78ZM332.8,458.85a20.28,20.28,0,0,1-12.25-8,18.81,18.81,0,0,1-9.39-1.83C312.43,462.24,326.72,464.24,332.8,458.85Zm17.34-15.8a21.77,21.77,0,0,1-15.87-1.74,11.7,11.7,0,0,0-3.38,3.95,23,23,0,0,1-8.15-.13c1.18,3.56,6.5,9.47,14.34,9.47S350,449,350.14,443.05Zm-5.58-3.94c6.8,0,12.29-4.29,12.29-12.17,0-10.27-8.64-17.58-18.41-18.79.52,5.1,1,9.54,1.21,13.15,3.65-2.22,9.75-.11,9.31,4.94-2.17-2.22-5.79-2.82-7.74-.86-1.08,1.07-1.59,2.64-1.27,5.45a28.15,28.15,0,0,1-8.48,2.43,18.16,18.16,0,0,0,13.09,5.85Zm-20.78-10a20.76,20.76,0,0,0,6.37,9.47,15.31,15.31,0,0,0-2,2.23c-5.41.3-11.34-2.39-11.34-2.39a36.18,36.18,0,0,0,.68,5.78H299.27c-15.34,0-24.38,8.41-28.79,15-4.4-6.55-13.45-15-28.78-15H223.51a36.18,36.18,0,0,0,.68-5.78s-5.93,2.71-11.34,2.39a15.31,15.31,0,0,0-2-2.23,20.76,20.76,0,0,0,6.37-9.47,43.46,43.46,0,0,1-11.35-1.44C205.41,419,211,383,211,354.6a138,138,0,0,0-5.19-38.24c38-2.59,64.68-15.83,64.68-15.83s26.71,13.22,64.64,15.83A137.77,137.77,0,0,0,330,354.6c0,28.47,5.62,64.41,5.18,73.07A43.46,43.46,0,0,1,323.78,429.11ZM275,365c12.39-13.37,20.73-24.68,23.28-27.21,3.67-3.69,10.77,1.35,12.55,5.63l-6.25,6.25c3.09,2.74,7.1,4.76,9.47,2.4,3.3-3.3,1.59-10.38-3.81-15.77A23.81,23.81,0,0,0,294.79,329c-2.48,8.38-11.41,20.29-19.75,29.91Zm32.46-22c-1.52-2.21-5.65-4.89-7.26-3.29-1.4,1.41-.28,4.87,2.49,8.06ZM275,379.66c14.38-14.08,29.44-21.15,34.18-24.16a18,18,0,0,1-7.5-4.81,17.22,17.22,0,0,1-4.55-7.39c-2,2.28-10.3,13.16-22.13,25.69ZM255.43,351.1l-10.6,10.6,14.32,10.05c1.6-1.49,5-4.87,6.33-6.33ZM249,341.92l-13.33,13.35,6.92,4.85,11.27-11.27Zm-23,.65-3.53-.56,1.24,7.95a6,6,0,0,0,1.35,2.93,5.92,5.92,0,0,0,5.9,1.91,6,6,0,0,0,2.8-1.58l13.16-13.16A5.93,5.93,0,0,0,243.71,330l-8-1.24.56,3.53c-.43-.11-12.17-1.9-12.17-1.9s1.79,11.78,1.9,12.18Zm17.46,68.33-6.25,6.25c-4.29-1.78-9.32-8.88-5.64-12.55,3-3,18.09-14,34.44-30.18v-5.6l-1.74,1.76c-9.11,9.11-29.17,26.84-41.54,30.51a23.86,23.86,0,0,0,7.33,15.5c5.41,5.41,12.47,7.1,15.77,3.8C248.19,418,246.16,414,243.46,410.9ZM234.31,406h-.08a1.64,1.64,0,0,0-.3.14l-.11.05a1.64,1.64,0,0,0-.33.26,1.5,1.5,0,0,0-.39.68v.09a2.5,2.5,0,0,0,0,.29,5.25,5.25,0,0,0,.84,2.91,10.43,10.43,0,0,0,2.9,3.3l4.76-4.73c-2.72-2.35-5.59-3.51-7.27-3Zm14.95,9.47c2.42-3.82,7.5-14.37,16.75-25.84V378.21c-13.87,13.48-26.48,23.11-29,25.24a17.25,17.25,0,0,1,7.4,4.55,18,18,0,0,1,4.77,7.5Zm23.14,4.73v0a9,9,0,0,0,0-17.58V358.86c-2.39,0-3.66,1.77-3.66,5.1v38.68a9,9,0,0,0,0,17.58,49.64,49.64,0,0,1-4.6,11.14,1.77,1.77,0,0,0-.12,1.39,1.8,1.8,0,0,0,.89,1.08,1.84,1.84,0,0,0,1.4.12,1.87,1.87,0,0,0,1.07-.9,74.51,74.51,0,0,0,3.21-6.83,72,72,0,0,0,3.21,6.83,1.87,1.87,0,0,0,1.07.9,1.84,1.84,0,0,0,1.4-.12,1.8,1.8,0,0,0,.89-1.08,1.77,1.77,0,0,0-.12-1.39,49.44,49.44,0,0,1-4.64-11.11Zm10.69-20.35,10.6-10.59-14.28-10c-1.2,1.08-3.18,3-4.34,4.22v5Zm6.43,9.18,13.34-13.34-7-4.86-11.27,11.29Zm23-.68,3.53.56L314.8,401a5.92,5.92,0,0,0-10.05-3.26L291.53,411a5.94,5.94,0,0,0-1.45,6,6,6,0,0,0,1.79,2.68A5.84,5.84,0,0,0,294.8,421l7.94,1.25-.55-3.53c.43.1,12.17,1.9,12.17,1.9s-1.8-11.75-1.93-12.17Z" transform="translate(0)" fill="#fff" opacity="0.1" style="isolation: isolate"/>
</svg>
