<svg width="24" height="24" viewBox="0 0 24 24" fill="none" xmlns="http://www.w3.org/2000/svg">
<path fill-rule="evenodd" clip-rule="evenodd" d="M16.6711 15.5633L16.6708 15.5651H13.875V24C19.6118 23.0943 24 18.0995 24 12.0733C24 5.40541 18.6274 -6.03994e-07 12 -6.03994e-07C5.37258 -6.03994e-07 0 5.40541 0 12.0733C0 18.0994 4.38808 23.0941 10.1247 24V15.5651H7.07784V12.0751H7.07813V12.0733H10.1247V9.4152C10.1247 9.03737 10.1526 8.68066 10.2069 8.34568C10.5864 5.99685 12.2582 4.71614 14.6576 4.71614C15.9705 4.71614 17.3438 4.95195 17.3438 4.95195V7.92313H17.3435V7.92489H15.8303C14.5606 7.92489 14.0351 8.60004 13.9072 9.3902C13.8851 9.52718 13.875 9.66761 13.875 9.80857V12.0733H17.2031L17.2028 12.0751L16.6711 15.5633Z" fill="#8B91A9"/>
</svg>
