<svg xmlns="http://www.w3.org/2000/svg" viewBox="0 0 24 24">
  <title>ok</title>
  <g>
    <path d="M12,9.69a1.81,1.81,0,0,0,1.82-1.81h0A1.82,1.82,0,1,0,12,9.69Z" fill="#8a90a7"/>
    <path d="M12,0A12,12,0,1,0,24,12,12,12,0,0,0,12,0Zm0,3.48A4.39,4.39,0,1,1,7.6,7.87,4.4,4.4,0,0,1,12,3.48Zm4.69,11a1.42,1.42,0,0,1-.36.33,8.35,8.35,0,0,1-2.54,1.06l2.47,2.42a1.19,1.19,0,0,1,.28.42,1.3,1.3,0,0,1-.71,1.69,1.31,1.31,0,0,1-1,0,1.26,1.26,0,0,1-.42-.27L12,17.72,9.58,20.13a1.29,1.29,0,1,1-1.84-1.82l2.45-2.46a8.25,8.25,0,0,1-2.52-1A1.3,1.3,0,0,1,7.29,13a1.38,1.38,0,0,1,.31-.33,1.57,1.57,0,0,1,.46-.2,1.1,1.1,0,0,1,.51,0,1.43,1.43,0,0,1,.47.18,5.58,5.58,0,0,0,5.91,0,1.35,1.35,0,0,1,.47-.18,1.1,1.1,0,0,1,.51,0,1.57,1.57,0,0,1,.46.2A1.3,1.3,0,0,1,16.68,14.5Z" fill="#8a90a7"/>
  </g>
</svg>
