<svg width="80" height="80" viewBox="0 0 80 80" fill="none" xmlns="http://www.w3.org/2000/svg">
<g filter="url(#filter0_d)">
<circle cx="40" cy="36" r="32" fill="white"/>
</g>
<path d="M40.0048 43.8256C40.17 43.8256 40.3315 43.8744 40.4689 43.9659C40.6063 44.0575 40.7133 44.1875 40.7766 44.3397C40.8398 44.4919 40.8563 44.6594 40.8241 44.8209C40.7919 44.9825 40.7123 45.1309 40.5955 45.2473C40.4787 45.3638 40.3298 45.4431 40.1678 45.4753C40.0057 45.5074 39.8378 45.4909 39.6851 45.4279C39.5325 45.3648 39.4021 45.2581 39.3103 45.1211C39.2185 44.9842 39.1695 44.8232 39.1695 44.6584C39.1701 44.4377 39.2583 44.2263 39.4149 44.0702C39.5714 43.9142 39.7835 43.8262 40.0048 43.8256V43.8256ZM44.2753 43.5856C44.2602 43.4842 44.2171 43.389 44.1508 43.3106C44.0845 43.2323 43.9976 43.1739 43.8999 43.142C43.8022 43.1101 43.6975 43.106 43.5976 43.1301C43.4976 43.1541 43.4064 43.2055 43.3341 43.2784L42.0919 44.5144C42.0197 44.5869 41.969 44.6778 41.9453 44.7772C41.9217 44.8766 41.9261 44.9806 41.9579 45.0777C41.9898 45.1747 42.048 45.2612 42.126 45.3274C42.204 45.3936 42.2988 45.437 42.4 45.4529L43.1463 45.5705L43.0933 45.2369L44.2392 45.4169L44.0587 44.2768L44.3909 44.3296L44.2753 43.5856ZM35.7223 38.7853C35.7337 38.8886 35.774 38.9867 35.8386 39.0682C35.9032 39.1498 35.9894 39.2116 36.0876 39.2467C36.1857 39.2817 36.2917 39.2885 36.3936 39.2664C36.4954 39.2442 36.5889 39.194 36.6635 39.1214L37.9057 37.8733C37.9781 37.8011 38.029 37.7103 38.0527 37.611C38.0765 37.5117 38.0721 37.4078 38.0402 37.3108C38.0083 37.2138 37.95 37.1276 37.8719 37.0616C37.7937 36.9957 37.6988 36.9526 37.5975 36.9372L36.8513 36.8196L36.9018 37.1533L35.7584 36.9732L35.9389 38.1133L35.6043 38.0605L35.7223 38.7853ZM43.3028 42.9087L40.9461 41.3511C41.8 40.5876 42.7375 39.9226 43.7409 39.3686C43.2438 39.2509 42.8026 38.9661 42.4915 38.5621C42.4915 38.5621 41.1555 40.2422 40.1998 40.7942C41.5334 39.4046 42.1401 38.2477 42.388 38.0053C42.7178 37.6813 43.4039 38.0629 43.4592 38.4157C43.0669 38.3005 42.9272 38.5093 43.1535 38.7277C43.4761 39.0446 44.0322 39.2534 44.2825 39.0085C44.5329 38.7637 44.3475 38.0125 43.7602 37.4389C43.1728 36.8652 42.453 36.6348 42.1521 36.9276C41.8512 37.2205 41.271 38.5837 39.7785 40.1606L38.5243 38.2741L36.702 39.4718L38.9625 40.967C37.9484 41.7941 36.8166 42.4663 35.6043 42.9615C35.9536 43.1398 36.2891 43.3435 36.6082 43.5712C37.6492 42.9048 38.6499 42.1779 39.6052 41.3943C38.883 42.4455 37.1979 43.6408 36.5191 44.1472C36.2085 44.3704 36.2784 44.8816 36.6587 45.2609C37.0391 45.6401 37.4748 45.6737 37.7468 45.4097C38.0766 45.0881 38.6832 43.708 40.1541 42.1359L41.4636 44.1016L43.3028 42.9087ZM31.1653 28.0976C31.9068 27.4376 32.9804 27.4376 33.6015 27.644C33.1531 27.1986 32.5991 26.8733 31.991 26.6983C31.7538 26.8516 31.5558 27.0579 31.4124 27.3008C31.2691 27.5436 31.1845 27.8165 31.1653 28.0976V28.0976ZM34.3309 48.6762C34.1383 48.5922 33.8494 48.4146 33.6568 47.7882C33.3381 47.7393 33.0368 47.6114 32.7806 47.4162C32.2991 46.9361 32.5399 46.3841 32.665 45.9761C32.1427 45.3545 32.2534 44.8048 32.6 44.4592C32.861 44.2438 33.162 44.0818 33.4859 43.9825C33.8098 43.8833 34.1501 43.8487 34.4873 43.8808V42.6975C33.3439 42.3423 32.2173 42.4407 31.3362 43.3312C30.3492 44.3272 30.1109 45.1361 28.8616 45.6233C29.343 46.4417 30.1928 46.4897 30.915 46.4681C30.7631 47.0375 30.4034 47.5297 29.9063 47.8482C30.3878 48.3282 31.2616 48.5034 32.0319 48.3042C32.0111 48.7718 31.8965 49.2304 31.6949 49.6531C32.1814 49.7799 32.6952 49.7542 33.1664 49.5794C33.6377 49.4046 34.0434 49.0892 34.3285 48.6762H34.3309ZM29.5524 43.2472C30.253 42.4647 30.7561 40.9814 31.0377 39.2534C32.0729 39.2534 33.6857 39.7718 34.4849 40.9838V36.6804C33.5207 36.9209 32.5205 36.9835 31.5336 36.8652C29.8943 36.6252 28.9747 35.4252 28.9747 33.9851C28.9783 33.5887 29.0645 33.1973 29.2278 32.8358C29.3911 32.4743 29.6279 32.1505 29.9232 31.885C29.9545 31.863 29.9794 31.833 29.9952 31.7982C30.011 31.7634 30.0171 31.7249 30.013 31.6869C30.0088 31.6489 29.9944 31.6127 29.9714 31.5821C29.9485 31.5515 29.9176 31.5277 29.8822 31.513C29.8004 31.4722 29.7571 31.4314 29.6752 31.3906C24.5549 28.1792 19.9306 20.686 19.4347 19.87C19.4275 19.8605 19.4182 19.8529 19.4076 19.8476C19.3969 19.8423 19.3852 19.8396 19.3733 19.8396C19.3614 19.8396 19.3497 19.8423 19.339 19.8476C19.3284 19.8529 19.3191 19.8605 19.3119 19.87C17.7424 21.2285 17.5763 23.9502 19.2301 26.0455C20.3037 27.4448 22.6147 28.9688 24.969 30.2865C24.9281 30.5265 24.9281 30.7809 24.8847 31.0282C20.0919 30.0009 16.9985 26.6551 16.5026 26.1199C16.4954 26.1105 16.4862 26.1028 16.4755 26.0975C16.4649 26.0922 16.4531 26.0895 16.4412 26.0895C16.4293 26.0895 16.4176 26.0922 16.407 26.0975C16.3963 26.1028 16.387 26.1105 16.3798 26.1199C15.4723 27.8504 16.2571 30.2001 18.0312 31.1842C19.5599 32.0482 21.996 32.5426 25.0123 32.9146C25.0532 33.1187 25.0942 33.3251 25.1351 33.5723C22.2046 33.9567 19.225 33.4996 16.5459 32.2546C16.5026 32.2138 16.4617 32.2546 16.4208 32.2954C16.2137 34.1483 17.3716 35.6316 19.3938 36.0012C21.4183 36.2892 25.7128 35.2596 25.7128 35.2596C25.7911 35.46 25.8878 35.6529 26.0017 35.8356C23.1924 37.4413 19.1867 37.2757 18.609 37.2373C18.5878 37.2389 18.568 37.248 18.5529 37.263C18.5379 37.278 18.5288 37.2978 18.5271 37.3189C18.5681 39.2534 20.4674 39.7886 22.1597 39.5822C23.6041 39.3782 25.6286 38.4301 27.032 37.3597C27.1733 37.5209 27.3253 37.6725 27.487 37.8133C26.1245 40.0358 22.9445 40.9334 21.8708 41.0247C21.8299 41.0247 21.789 41.0655 21.8299 41.1063C22.5328 42.3063 24.059 42.6711 25.7538 41.8887C26.7432 41.3943 27.9829 40.1582 28.8495 38.7685L29.4682 39.0085C28.9314 41.6847 26.2906 43.2904 25.8356 43.5376C25.7947 43.5376 25.7947 43.6192 25.8356 43.6192C26.6204 44.4808 28.4379 44.524 29.5524 43.2472ZM33.8133 17.7219L32.9876 16.7354L32.1523 17.7219L32.978 18.7203L33.8133 17.7219ZM24.3912 23.7342C24.8438 23.403 26.4543 22.4981 26.0426 24.2142C26.2379 24.1524 26.4096 24.0327 26.5348 23.871C26.66 23.7093 26.7327 23.5134 26.7432 23.3094C26.7432 22.1981 25.2169 21.7037 25.2169 20.6332C25.2169 19.0684 27.7349 19.0684 27.6531 19.3156C27.1981 20.7148 28.0647 22.4861 30.46 22.5677V22.2509C28.4379 22.2509 27.5279 20.11 29.0975 18.6291C28.2308 15.989 26.9502 18.6291 25.8765 19.3276C25.2579 19.6996 23.5656 19.4932 23.4404 20.2348C23.2767 21.3869 25.2579 21.3461 24.3912 23.7342ZM46.3985 27.644C46.8104 27.5117 47.2489 27.4839 47.6742 27.5631C48.0996 27.6423 48.4985 27.826 48.8347 28.0976C48.8163 27.8171 48.7328 27.5447 48.5908 27.3019C48.4487 27.059 48.252 26.8524 48.0162 26.6983C47.4055 26.8722 46.8489 27.1975 46.3985 27.644V27.644ZM48.6638 43.3312C47.7803 42.4407 46.6561 42.3423 45.5102 42.6975V43.8832C46.1921 43.8188 46.8718 44.0269 47.4 44.4616C47.7442 44.8072 47.8549 45.3569 47.335 45.9785C47.4529 46.3841 47.6912 46.9385 47.217 47.4186C46.9612 47.6145 46.6597 47.7425 46.3408 47.7906C46.1482 48.417 45.8593 48.5946 45.6691 48.6786C45.9543 49.0921 46.3605 49.4077 46.8322 49.5825C47.304 49.7574 47.8183 49.7828 48.3051 49.6555C48.1035 49.2328 47.9889 48.7742 47.9681 48.3066C48.7384 48.5058 49.6146 48.3282 50.0937 47.8506C49.5958 47.533 49.2358 47.0404 49.085 46.4705C49.8072 46.4921 50.6642 46.4441 51.1384 45.6257C49.8891 45.1361 49.6483 44.3272 48.6638 43.3312V43.3312ZM63.4516 32.2546C60.7726 33.4993 57.793 33.9564 54.8625 33.5723C54.9034 33.3323 54.9468 33.1187 54.9877 32.9146C58.0016 32.5426 60.4377 32.0482 61.9688 31.1842C63.7429 30.1953 64.5277 27.8504 63.6202 26.1199C63.6127 26.1104 63.6032 26.1028 63.5924 26.0975C63.5815 26.0922 63.5696 26.0895 63.5576 26.0895C63.5455 26.0895 63.5336 26.0922 63.5227 26.0975C63.5119 26.1028 63.5024 26.1104 63.495 26.1199C62.9991 26.6551 59.9033 29.9913 55.1129 31.021C55.0719 30.7809 55.0719 30.5265 55.031 30.2793C57.3853 28.9616 59.6963 27.4376 60.7699 26.0383C62.4213 23.9382 62.2576 21.2213 60.6881 19.8628C60.6807 19.8533 60.6712 19.8456 60.6603 19.8404C60.6495 19.8351 60.6376 19.8324 60.6255 19.8324C60.6134 19.8324 60.6015 19.8351 60.5907 19.8404C60.5798 19.8456 60.5703 19.8533 60.5629 19.8628C60.0694 20.686 55.4426 28.1792 50.3224 31.3834C50.2405 31.4242 50.1996 31.465 50.1178 31.5058C50.0824 31.5205 50.0515 31.5443 50.0286 31.5749C50.0056 31.6055 49.9912 31.6417 49.987 31.6797C49.9829 31.7177 49.989 31.7562 50.0048 31.791C50.0206 31.8258 50.0455 31.8558 50.0768 31.8778C50.3721 32.1433 50.6089 32.4671 50.7722 32.8286C50.9355 33.1901 51.0217 33.5814 51.0253 33.9779C51.0253 35.418 50.1057 36.618 48.4664 36.858C47.4787 36.9763 46.4777 36.9137 45.5127 36.6732V40.9766C46.3239 39.7646 47.9199 39.2462 48.9599 39.2462C49.2511 40.9742 49.7446 42.4575 50.4476 43.24C51.5621 44.5168 53.3796 44.4736 54.1644 43.6096C54.2053 43.6096 54.2053 43.528 54.1644 43.528C53.7094 43.288 51.0662 41.6751 50.5294 38.9989L51.1505 38.7589C52.0171 40.1582 53.2544 41.3991 54.2462 41.8791C55.9313 42.6615 57.4672 42.2895 58.1677 41.0967C58.211 41.0559 58.1677 41.015 58.1268 41.015C57.0531 40.931 53.8755 40.0262 52.513 37.8037C52.674 37.6629 52.8252 37.5113 52.9656 37.3501C54.369 38.4205 56.3935 39.3686 57.8379 39.5726C59.523 39.779 61.4319 39.2438 61.4729 37.3093C61.4711 37.2878 61.4616 37.2677 61.4461 37.2527C61.4306 37.2376 61.4102 37.2288 61.3886 37.2277C60.8109 37.2685 56.8148 37.4317 53.9983 35.826C54.1122 35.6433 54.2089 35.4504 54.2872 35.25C54.2872 35.25 58.5817 36.2796 60.6062 35.9916C62.6284 35.622 63.7838 34.1387 63.5768 32.2858C63.5335 32.2546 63.4926 32.2138 63.4516 32.2546V32.2546ZM47.8429 17.7219L47.0172 16.7354L46.1915 17.7219L47.0172 18.7203L47.8429 17.7219ZM52.3493 19.3276C52.2675 19.0876 54.7855 19.0876 54.7855 20.6452C54.7855 21.7157 53.2568 22.2101 53.2568 23.3214C53.2675 23.5257 53.3406 23.7218 53.4662 23.8835C53.5918 24.0453 53.7641 24.1648 53.9598 24.2262C53.5457 22.4981 55.1634 23.403 55.6112 23.7462C54.7445 21.3461 56.7257 21.3989 56.562 20.2468C56.4369 19.5052 54.7445 19.7116 54.1259 19.3396C53.0522 18.6411 51.7716 16.0058 50.9049 18.6411C52.4721 20.122 51.5645 22.2629 49.5424 22.2629V22.5917C51.9304 22.4981 52.7995 20.7268 52.3493 19.3276ZM31.4518 22.6637H34.5475C37.1498 22.6637 38.3053 21.0581 38.676 19.6996H41.324C41.6971 21.0581 42.8526 22.6637 45.4525 22.6637H48.5458C48.8128 22.2997 49.048 21.9134 49.2487 21.5093C49.7302 20.2348 49.1236 19.6156 48.216 19.6156L47.0124 20.686L45.775 19.6564C44.8651 19.6564 44.2464 20.2348 44.7423 21.5501C44.8242 21.7157 44.9831 21.9629 45.113 22.1693C43.9985 22.0037 42.595 21.2621 42.3062 19.6564C42.6888 19.0758 43.0338 18.4713 43.3389 17.8467C44.0803 15.9938 43.1319 15.2066 41.7693 15.2066L39.9976 17.2803L38.2234 15.221C36.8609 15.221 35.91 16.0034 36.6539 17.8611C36.959 18.4857 37.3039 19.0902 37.6866 19.6708C37.3977 21.2765 36.0015 22.0181 34.8773 22.1837C35.0025 21.9773 35.1662 21.7301 35.2505 21.5645C35.7463 20.2492 35.1253 19.6708 34.2177 19.6708L32.978 20.7004L31.7743 19.63C30.8668 19.63 30.2457 20.2492 30.7416 21.5237C30.9454 21.9231 31.183 22.3045 31.4518 22.6637V22.6637ZM41.1555 13.3993L39.9976 12L38.8421 13.3993L39.9976 14.8801L41.1555 13.3993ZM49.6195 26.1607C49.8742 26.1815 50.1178 26.2736 50.3223 26.4265C50.5267 26.5794 50.6837 26.7868 50.7749 27.0248C51.0638 26.7847 51.3527 25.9543 51.2299 25.3783C50.734 22.7381 44.622 24.471 41.5262 23.3598C41.4444 24.1014 42.4747 25.3351 43.4255 25.7887C41.7742 27.2288 40.2961 30.1089 39.9976 33.6107C39.7087 30.1113 38.2234 27.2288 36.572 25.7887C37.5205 25.3351 38.5532 24.1086 38.4714 23.3598C35.3732 24.4806 29.2636 22.7453 28.758 25.3807C28.6329 25.9567 28.9217 26.7799 29.213 27.0272C29.3043 26.7892 29.4612 26.5818 29.6657 26.4289C29.8701 26.276 30.1138 26.1839 30.3685 26.1631C33.498 25.6831 36.2904 29.0745 36.2904 31.9858C36.3078 32.7422 36.1535 33.4927 35.8392 34.1814C35.525 34.87 35.0587 35.479 34.4753 35.9628L39.988 34.6163L45.5006 35.9628C44.9177 35.4787 44.4519 34.8697 44.138 34.181C43.8241 33.4924 43.6703 32.742 43.6879 31.9858C43.6976 29.0745 46.4876 25.6807 49.6195 26.1607ZM41.3601 50.5339C41.8969 49.0507 42.5782 47.5218 43.7385 47.5218C44.3066 47.5218 44.8121 48.0642 45.1829 48.1242C45.2604 48.1413 45.3413 48.1341 45.4145 48.1036C45.4878 48.0731 45.5498 48.0208 45.5921 47.9538C45.7234 47.7339 45.8056 47.4883 45.8328 47.2338C46.1185 47.2108 46.3996 47.1486 46.6681 47.049C46.7418 47.0229 46.8039 46.9718 46.8435 46.9047C46.8832 46.8375 46.8978 46.7586 46.8848 46.6817C46.8405 46.3917 46.746 46.1115 46.6056 45.8537C46.7862 45.7004 46.9343 45.5127 47.0413 45.3017C47.0753 45.2311 47.0843 45.1512 47.0668 45.0749C47.0493 44.9986 47.0064 44.9304 46.945 44.8816C46.539 44.5937 46.0423 44.4616 45.5464 44.5096H45.5247V45.3617C45.5365 45.5557 45.5076 45.7501 45.4397 45.9324C45.3719 46.1147 45.2666 46.2809 45.1307 46.4203C44.9947 46.5597 44.8311 46.6692 44.6502 46.7419C44.4693 46.8146 44.2752 46.8489 44.0803 46.8425H42.4626C41.9791 46.8315 41.5005 46.9422 41.0713 47.1646C40.6421 47.3869 40.2761 47.7137 40.0072 48.1146C39.7389 47.7137 39.3734 47.3869 38.9445 47.1646C38.5157 46.9422 38.0375 46.8314 37.5542 46.8425H35.9269C35.7321 46.8485 35.5382 46.814 35.3575 46.7412C35.1768 46.6683 35.0133 46.5588 34.8774 46.4195C34.7415 46.2801 34.6362 46.1141 34.5682 45.932C34.5003 45.7499 34.4711 45.5557 34.4825 45.3617V44.5192H34.4633C33.9686 44.4693 33.4723 44.5979 33.0646 44.8816C33.0037 44.9308 32.9612 44.999 32.9441 45.0753C32.9271 45.1516 32.9365 45.2314 32.9708 45.3017C33.077 45.5132 33.2252 45.701 33.4065 45.8537C33.266 46.1115 33.1715 46.3917 33.1272 46.6817C33.1143 46.7586 33.1289 46.8375 33.1685 46.9047C33.2081 46.9718 33.2702 47.0229 33.3439 47.049C33.6124 47.1488 33.8935 47.211 34.1792 47.2338C34.2065 47.4883 34.2886 47.7339 34.4199 47.9538C34.4622 48.0208 34.5242 48.0731 34.5975 48.1036C34.6707 48.1341 34.7517 48.1413 34.8292 48.1242C35.1975 48.0642 35.7006 47.5218 36.2735 47.5218C37.4338 47.5218 38.1127 49.0507 38.6495 50.5339C36.0015 51.1508 32.7036 52.922 32.044 54.8541C31.8032 55.5958 32.6217 56.5822 33.6544 56.7886C33.6954 56.7886 33.7363 56.7886 33.7363 56.7478C34.2731 53.9061 37.3713 51.7652 38.9817 51.3956C39.0636 51.602 39.0226 51.5612 39.1045 51.7652C37.3713 52.5908 35.6765 54.3189 35.1806 56.3782C34.976 57.3239 36.0087 58.1879 36.8657 58.3943C36.9067 58.3943 36.9476 58.3943 36.9476 58.3535C37.1137 55.759 38.2692 53.5365 39.3019 52.5068C39.3428 52.7132 39.3428 52.9196 39.3837 53.0829C39.3837 53.0829 38.3101 56.047 38.3101 58.1879C38.3101 59.1768 39.7978 59.868 39.9952 60C40.2022 59.8776 41.6803 59.1768 41.6803 58.1879C41.6803 56.047 40.6066 53.0829 40.6066 53.0829C40.6476 52.9196 40.6476 52.7132 40.6885 52.5068C41.7212 53.5365 42.8767 55.759 43.0428 58.3535C43.0428 58.3943 43.0837 58.3943 43.1246 58.3943C43.9913 58.1879 45.024 57.3239 44.8097 56.3782C44.3138 54.3189 42.6215 52.5908 40.8883 51.7652C40.9701 51.5612 40.9292 51.602 41.0111 51.3956C42.6215 51.7652 45.7197 53.9061 46.2565 56.7478C46.2565 56.7886 46.2974 56.7886 46.3383 56.7886C47.3711 56.5822 48.1968 55.5886 47.9488 54.8541C47.3061 52.922 44.0033 51.1508 41.3601 50.5339Z" fill="black"/>
<defs>
<filter id="filter0_d" x="0" y="0" width="80" height="80" filterUnits="userSpaceOnUse" color-interpolation-filters="sRGB">
<feFlood flood-opacity="0" result="BackgroundImageFix"/>
<feColorMatrix in="SourceAlpha" type="matrix" values="0 0 0 0 0 0 0 0 0 0 0 0 0 0 0 0 0 0 127 0"/>
<feOffset dy="4"/>
<feGaussianBlur stdDeviation="4"/>
<feColorMatrix type="matrix" values="0 0 0 0 0.545098 0 0 0 0 0.568627 0 0 0 0 0.662745 0 0 0 0.4 0"/>
<feBlend mode="normal" in2="BackgroundImageFix" result="effect1_dropShadow"/>
<feBlend mode="normal" in="SourceGraphic" in2="effect1_dropShadow" result="shape"/>
</filter>
</defs>
</svg>
