<svg xmlns="http://www.w3.org/2000/svg" viewBox="0 0 24 24">
  <title>tw</title>
  <path d="M12,0A12,12,0,1,0,24,12,12,12,0,0,0,12,0Zm6.88,9.05c0,.15,0,.29,0,.44,0,4.54-3.28,9.77-9.26,9.77a8.89,8.89,0,0,1-5-1.54,6.57,6.57,0,0,0,.78,0,6.33,6.33,0,0,0,4-1.46,3.28,3.28,0,0,1-3-2.39,3.14,3.14,0,0,0,1.47-.06,3.38,3.38,0,0,1-2.61-3.36v-.05a3,3,0,0,0,1.47.43A3.47,3.47,0,0,1,5.3,8a3.58,3.58,0,0,1,.44-1.73,9.13,9.13,0,0,0,6.71,3.59,4.07,4.07,0,0,1-.08-.79,3.34,3.34,0,0,1,3.25-3.43A3.18,3.18,0,0,1,18,6.75a6.3,6.3,0,0,0,2.06-.84,3.4,3.4,0,0,1-1.43,1.9,6.21,6.21,0,0,0,1.87-.54A7.07,7.07,0,0,1,18.88,9.05Z" fill="#8a90a7"/>
</svg>
