<svg xmlns="http://www.w3.org/2000/svg" viewBox="0 0 24 24">
  <title>vk</title>
  <path d="M12.89,17.11H11.81a6.22,6.22,0,0,1-4.48-2C5,12.69,3,8,3,8s-.11-.31,0-.46a.89.89,0,0,1,.53-.18H6.14a1.24,1.24,0,0,1,.42.16.86.86,0,0,1,.22.31,17.73,17.73,0,0,0,1,2c1.08,1.87,1.58,2.27,1.95,2.07.53-.29.37-2.63.37-2.63A2.61,2.61,0,0,0,9.8,8a1.2,1.2,0,0,0-.8-.4c-.14,0,.09-.36.4-.51a6,6,0,0,1,2.25-.23A4.7,4.7,0,0,1,12.92,7c.69.16.66.69.62,1.84,0,.34,0,.73,0,1.19,0,.1,0,.21,0,.33,0,.58,0,1.25.35,1.5.2.13.68,0,1.89-2a15.07,15.07,0,0,0,1-2.12A.74.74,0,0,1,17,7.4a.59.59,0,0,1,.35-.06l2.71,0s.82-.1.95.27-.31,1.29-1.42,2.77S18,12.28,18.07,12.74s.37.63,1,1.22A8.09,8.09,0,0,1,20.85,16l0,0c.59,1-.67,1.07-.67,1.07l-2.41,0a1.72,1.72,0,0,1-1.2-.37,6.62,6.62,0,0,1-1-1c-.5-.58-1-1.12-1.37-1-.68.21-.65,1.66-.65,1.66a.8.8,0,0,1-.15.47A.93.93,0,0,1,12.89,17.11ZM12,0A12,12,0,1,0,24,12,12,12,0,0,0,12,0Z" transform="translate(0)" fill="#8a90a7"/>
</svg>
