<svg xmlns="http://www.w3.org/2000/svg" viewBox="0 0 24 24">
  <title>whatsapp</title>
  <path d="M12,0A12,12,0,1,0,24,12,12,12,0,0,0,12,0Zm0,19.86a8,8,0,0,1-3.8-1L4,20l1.12-4.11A7.94,7.94,0,0,1,12,4a7.94,7.94,0,0,1,7.92,7.93A7.93,7.93,0,0,1,12,19.86ZM12,5.34A6.6,6.6,0,0,0,6.57,15.68L5.9,18.12l2.5-.66A6.59,6.59,0,1,0,12,5.34Zm3.87,9.42a2,2,0,0,1-1.33.94,2.73,2.73,0,0,1-1.25-.07c-.29-.1-.66-.22-1.13-.42a8.8,8.8,0,0,1-3.35-2.94l0,0h0a3.87,3.87,0,0,1-.8-2,2.18,2.18,0,0,1,.65-1.61l0-.05a.75.75,0,0,1,.53-.24h.42c.12,0,.26,0,.4.34.05.13.13.3.21.49.17.43.37.92.4,1a.36.36,0,0,1,0,.35l0,.06a1,1,0,0,1-.17.27l-.1.12-.2.23c-.09.1-.2.2-.08.4a5.81,5.81,0,0,0,1.1,1.38,5.1,5.1,0,0,0,1.46.92l.13.06c.2.1.32.08.43,0a9.24,9.24,0,0,0,.63-.78c.13-.2.26-.16.45-.1s1.15.55,1.35.65l.11.05c.14.07.23.11.27.18A1.62,1.62,0,0,1,15.87,14.76Z" fill="#8b91a9"/>
</svg>
